<?xml version="1.0" standalone="no"?>
<!DOCTYPE svg PUBLIC "-//W3C//DTD SVG 20010904//EN"
 "http://www.w3.org/TR/2001/REC-SVG-20010904/DTD/svg10.dtd">
<svg version="1.0" xmlns="http://www.w3.org/2000/svg"
 width="432.000000pt" height="498.000000pt" viewBox="0 0 432.000000 498.000000"
 preserveAspectRatio="xMidYMid meet">

<g transform="translate(0.000000,498.000000) scale(0.100000,-0.100000)"
fill="#6582af" stroke="none">
<path d="M3910 2450 l0 -1550 30 0 30 0 0 1550 0 1550 -30 0 -30 0 0 -1550z"/>
<path d="M1684 3970 c-174 -35 -329 -185 -616 -600 -257 -371 -352 -684 -263
-860 35 -69 104 -136 173 -168 52 -24 68 -26 177 -26 98 0 134 4 195 23 123
38 255 108 362 191 27 21 26 19 -17 -79 -24 -56 -59 -122 -77 -147 -27 -38
-33 -56 -33 -96 0 -46 3 -53 37 -83 57 -49 245 -98 288 -75 18 10 21 17 15 50
-6 34 -3 41 19 55 20 13 37 16 73 11 106 -15 146 -38 136 -77 -6 -20 -5 -21
26 -5 37 20 71 70 71 106 -1 39 -38 112 -71 140 l-30 25 30 55 c56 103 85 206
86 300 0 103 11 110 85 55 73 -54 138 -63 260 -36 204 44 240 61 240 111 0 58
-78 95 -200 95 -101 -1 -144 -14 -228 -67 -34 -23 -65 -38 -69 -35 -10 11 18
67 44 87 13 10 52 28 86 39 138 44 242 37 367 -28 97 -50 121 -55 167 -36 48
19 66 46 73 111 l5 50 124 -65 c188 -100 249 -162 238 -244 -11 -79 -92 -139
-336 -247 -158 -70 -202 -98 -248 -156 -55 -71 -126 -237 -163 -381 -10 -38
-14 -43 -48 -49 -110 -19 -248 -63 -369 -119 -78 -36 -83 -37 -133 -26 -29 6
-84 25 -124 43 -66 29 -74 30 -111 18 -22 -7 -81 -15 -131 -19 -109 -8 -149
-28 -141 -69 3 -15 8 -37 12 -49 7 -22 5 -23 -53 -23 -34 0 -63 -4 -67 -10 -3
-5 3 -44 14 -87 11 -43 29 -134 41 -203 39 -228 62 -301 112 -347 56 -52 179
-68 255 -33 l43 19 57 -29 c95 -48 142 -53 413 -47 233 6 363 20 520 56 398
91 638 284 682 549 10 57 10 82 -1 120 -28 105 -116 201 -241 261 l-75 36
-175 3 c-115 2 -226 -2 -320 -12 -79 -9 -145 -14 -148 -11 -7 7 56 200 89 274
38 84 100 165 149 196 22 14 102 53 178 86 289 128 373 211 324 322 -29 64
-94 116 -240 192 -107 56 -134 74 -139 95 -34 143 -160 214 -403 227 -151 7
-268 -11 -381 -61 -15 -6 -17 5 -21 91 -5 114 -29 182 -103 293 -57 85 -208
239 -271 276 -25 15 -71 33 -103 40 -62 15 -60 15 -117 4z m1158 -679 c114
-30 181 -78 213 -153 20 -50 20 -51 -22 -32 -131 58 -168 67 -258 67 -84 0
-102 -4 -271 -61 -145 -50 -194 -62 -243 -62 l-61 0 23 48 c14 26 30 65 37 87
17 55 24 61 87 85 140 52 341 61 495 21z m103 -164 c33 -13 77 -33 99 -43 l38
-19 -4 -54 c-4 -45 -10 -59 -37 -83 -45 -40 -79 -36 -189 19 -86 43 -101 47
-180 51 -181 8 -332 -62 -332 -154 0 -41 9 -42 63 -5 66 45 119 69 175 79 l51
9 -30 -27 c-16 -16 -29 -34 -29 -42 0 -21 38 -54 88 -76 l43 -19 -65 -17
c-129 -32 -213 -19 -305 49 -40 29 -41 29 -67 11 -16 -12 -19 -25 -16 -89 3
-86 -29 -203 -81 -299 l-31 -57 -58 6 c-49 5 -59 3 -64 -12 -18 -47 49 -71 98
-35 l29 21 28 -20 c56 -40 78 -146 40 -195 -25 -31 -35 -33 -42 -6 -12 45
-182 79 -232 46 -23 -15 -26 -23 -23 -59 3 -41 2 -42 -32 -45 -42 -4 -161 23
-212 49 -79 40 -91 109 -34 188 19 26 44 69 54 96 49 122 92 204 119 224 63
49 269 261 326 336 57 76 62 80 96 77 51 -4 159 21 276 63 162 59 191 65 290
61 65 -3 106 -11 150 -29z m-212 -234 c63 -32 59 -113 -5 -113 -18 0 -51 9
-73 19 -75 34 -84 71 -25 102 35 19 52 18 103 -8z m61 -2 c44 -25 53 -44 33
-75 -26 -39 -42 -33 -42 16 0 37 -4 45 -35 66 -29 20 -31 23 -10 17 14 -4 38
-15 54 -24z m-676 -547 c2 -1 -8 -10 -23 -20 -21 -13 -31 -15 -50 -6 -47 22
-21 44 40 34 17 -3 32 -6 33 -8z m-80 -547 c26 -13 68 -30 95 -37 26 -7 47
-16 47 -20 0 -3 -11 -13 -25 -20 -19 -10 -64 -12 -205 -6 -149 5 -186 4 -216
-9 -48 -20 -49 -19 -62 11 -25 54 25 83 148 85 36 0 74 4 85 9 36 15 85 10
133 -13z m-40 -103 l114 -7 -30 -24 c-17 -13 -48 -47 -68 -76 -47 -64 -47 -64
-106 -72 -61 -9 -126 2 -145 25 -17 19 -64 132 -58 138 16 16 88 32 130 27 28
-2 101 -8 163 -11z m-280 -102 c31 -82 56 -95 164 -90 67 3 77 1 72 -12 -36
-82 -46 -132 -47 -220 0 -104 16 -157 67 -217 l27 -32 -33 -18 c-48 -25 -150
-23 -205 5 -74 39 -95 82 -133 277 -10 55 -29 150 -41 210 -12 61 -24 123 -26
138 l-5 28 68 -3 68 -3 24 -63z"/>
</g>
</svg>
 