<svg version="1.1" id="Layer_1" xmlns="http://www.w3.org/2000/svg" xmlns:xlink="http://www.w3.org/1999/xlink" x="0px" y="0px"
	 width="100%" viewBox="0 0 432 498" enable-background="new 0 0 432 498" xml:space="preserve">
<path fill="#FFFFFF" opacity="1.000000" stroke="none" 
	d="
M265.000000,499.000000 
	C178.000000,499.000000 91.499962,498.974060 5.000135,499.095886 
	C1.575868,499.100708 0.903029,498.423645 0.905303,494.999939 
	C1.013827,331.666656 1.013827,168.333313 0.905304,5.000063 
	C0.903029,1.576354 1.576275,0.902405 5.000074,0.905091 
	C146.333313,1.015963 287.666656,1.015963 428.999939,0.905091 
	C432.423737,0.902405 433.096985,1.576354 433.094696,5.000063 
	C432.986176,168.333313 432.986176,331.666656 433.094696,494.999939 
	C433.096985,498.423645 432.424866,499.105927 428.999756,499.097260 
	C374.500092,498.959106 320.000000,499.000000 265.000000,499.000000 
z"/>
<path fill="#354A66" opacity="1.000000" stroke="none" 
	d="
M173.512604,246.144287 
	C162.934875,252.886856 152.717667,259.623230 141.011230,263.750549 
	C130.647110,267.404602 120.070053,269.103241 109.120316,267.887390 
	C92.545578,266.046967 74.122414,250.932220 78.412796,224.924942 
	C80.971527,209.414566 87.034676,195.286926 95.000038,181.933197 
	C107.893211,160.318130 122.000877,139.518265 139.125092,120.992729 
	C147.659912,111.759483 157.289368,103.910110 170.412231,101.762756 
	C178.266617,100.477501 185.552658,102.013916 191.770233,106.466080 
	C207.320831,117.601257 219.857712,131.455582 226.796036,149.597107 
	C229.421753,156.462540 230.591919,163.738525 229.274689,171.582199 
	C229.790283,172.500916 230.314194,172.996841 230.045776,174.073578 
	C226.458694,175.929428 223.647827,178.227646 221.382370,181.149048 
	C218.145279,185.323380 217.129883,189.760117 220.197906,194.882614 
	C210.079971,211.577728 196.164978,224.501175 181.573883,237.162460 
	C178.948196,232.977936 181.441559,230.004837 184.080826,227.261475 
	C185.803894,225.470474 188.194138,224.446289 190.188339,222.941177 
	C194.336014,219.810730 194.659088,216.436844 191.061722,211.820389 
	C188.723099,214.768372 187.445908,218.262619 186.325500,221.571426 
	C184.265305,227.655609 180.102890,230.486313 174.140015,230.784927 
	C164.278885,231.278717 154.558914,230.549652 145.376144,225.331329 
	C141.309937,220.788605 141.461716,219.928787 146.709976,217.927933 
	C149.344803,216.923401 151.788361,215.462997 154.520645,214.715302 
	C158.453262,213.639130 159.728439,214.449997 160.214249,218.423645 
	C160.508194,220.827988 159.835571,223.799164 162.919388,224.761993 
	C166.815201,225.978363 170.848434,227.641327 174.960281,225.839081 
	C178.802460,224.155060 178.521637,220.131439 179.254379,216.858902 
	C179.850464,214.196671 177.479141,213.092896 175.611893,212.146301 
	C166.034866,207.291199 156.598450,207.268921 147.222351,213.609619 
	C146.691299,214.313538 146.360718,214.697113 145.745605,215.345749 
	C145.104095,215.985626 144.711502,216.324402 143.986542,216.875687 
	C137.015900,220.713715 131.337540,217.430893 130.079315,209.250580 
	C129.027618,202.412842 130.237518,200.943787 137.126251,200.673126 
	C138.614410,200.614639 140.173752,200.826355 141.541351,200.112015 
	C156.201324,192.454422 170.464310,195.257828 184.609818,201.654236 
	C185.750626,197.463669 181.445038,189.719879 175.782639,185.412827 
	C167.248230,178.921219 146.884048,175.362045 136.572327,184.084717 
	C135.957993,184.247208 135.704910,184.271194 135.113007,184.129395 
	C133.475021,181.959412 134.991592,180.526581 135.804916,178.964508 
	C143.018097,165.110748 151.818649,152.244156 160.499039,139.303024 
	C151.533798,152.455307 142.957611,165.832001 135.128693,179.717880 
	C129.782379,189.200455 129.037903,199.133240 130.092377,209.472672 
	C130.626083,214.705734 133.680710,218.103333 138.743317,218.951080 
	C142.444885,219.570908 142.246979,223.604034 145.195190,225.190887 
	C154.738281,230.687546 164.791153,231.505280 175.108475,230.613098 
	C176.878525,230.460037 178.747513,229.354736 180.112747,231.193970 
	C181.299179,232.792358 180.050232,234.396118 179.496140,235.861221 
	C178.277084,239.084595 175.992157,241.858047 175.244492,245.739471 
	C175.068375,246.109497 175.296188,246.058533 175.335480,246.168442 
	C175.374771,246.278351 174.882141,246.358429 174.638733,246.408829 
	C174.395325,246.459229 173.935226,246.288788 173.512604,246.144287 
z"/>
<path fill="#516F99" opacity="1.000000" stroke="none" 
	d="
M272.646606,306.605957 
	C284.976807,303.886810 296.880005,302.838898 308.879211,302.747345 
	C313.524323,302.711914 318.154144,302.862610 322.820526,302.299896 
	C341.900299,299.999054 364.266418,314.443451 369.215942,332.807068 
	C372.410004,344.657684 368.119629,355.528961 361.851593,365.412292 
	C353.108704,379.197906 339.732544,387.187378 324.980133,393.095459 
	C305.653778,400.835327 285.368195,404.308380 264.735138,405.735504 
	C250.648224,406.709839 236.524490,407.706177 222.389893,406.012848 
	C215.319611,405.165833 208.753708,403.186249 203.011902,398.348816 
	C203.606720,395.326019 205.467361,396.447845 206.731598,397.104736 
	C217.960495,402.939240 226.670364,398.631073 235.013962,390.823700 
	C252.063980,374.869476 265.709961,356.310486 277.527313,336.330597 
	C279.925690,332.275665 282.787506,330.489868 287.553955,330.635925 
	C293.420319,330.815643 297.133179,326.911194 297.127319,321.474304 
	C297.125854,320.115936 296.961182,318.711670 295.729248,317.931213 
	C294.398102,317.087860 293.078094,317.844971 292.032471,318.625092 
	C289.219727,320.723663 286.920959,323.341644 284.693512,326.056152 
	C281.772064,329.616364 279.092468,329.609558 276.007874,326.115021 
	C273.517029,323.293121 272.347992,319.829407 271.713440,315.770447 
	C271.696472,312.659576 271.363678,309.919708 272.646606,306.605957 
z"/>
<path fill="#506E98" opacity="1.000000" stroke="none" 
	d="
M222.899689,323.411438 
	C237.495514,314.477600 253.374329,309.662964 270.300964,306.637512 
	C272.478119,307.229736 272.845001,308.655365 272.090271,310.046875 
	C271.068604,311.930603 272.161041,313.441132 272.435822,315.456970 
	C272.054688,320.874359 274.315857,324.872742 278.030029,327.902466 
	C280.565674,329.970825 280.498901,331.810516 279.035492,334.303864 
	C266.512878,355.639679 252.074707,375.475708 233.707443,392.228577 
	C224.592575,400.542328 216.867844,402.138428 207.904419,397.834167 
	C205.506668,396.682770 204.087296,395.215698 204.987732,392.370056 
	C205.506104,390.731873 206.071762,388.864594 203.563660,388.485748 
	C201.449265,388.166351 199.002457,387.802338 198.840759,391.172302 
	C198.808105,391.852783 198.539429,392.461884 197.770416,393.133850 
	C191.629715,389.026520 190.517853,382.594452 189.725006,376.216675 
	C188.586746,367.060303 191.012360,358.438202 194.720917,349.727234 
	C195.479752,347.842865 196.779099,347.241547 198.221832,346.687286 
	C208.869827,342.596283 219.430145,338.317200 228.879272,331.756500 
	C230.311600,330.762024 232.012970,330.838898 233.662094,330.709351 
	C234.771027,330.622314 236.429443,330.982788 236.689713,329.665588 
	C237.028381,327.951691 235.278091,327.761475 234.034103,327.422058 
	C233.560425,327.292816 233.049347,327.314636 232.200134,327.275208 
	C231.378799,327.238556 230.911911,327.202789 230.101654,327.115692 
	C229.532211,327.034088 229.307190,326.990387 228.757782,326.845551 
	C228.230927,326.650208 228.028473,326.556030 227.545990,326.287842 
	C226.029053,324.885468 223.865250,325.372559 222.899689,323.411438 
z"/>
<path fill="#151313" opacity="1.000000" stroke="none" 
	d="
M391.969482,153.000000 
	C391.969482,135.841354 391.957916,119.182678 391.985992,102.524086 
	C391.989075,100.704994 391.168213,98.534737 394.617157,98.499878 
	C398.061951,98.465065 397.767365,100.398399 397.766937,102.657372 
	C397.748108,203.442200 397.749817,304.227020 397.755890,405.011841 
	C397.756042,407.324219 398.339630,409.699219 394.478882,409.533142 
	C390.513458,409.362640 392.030945,406.599457 392.029541,404.878937 
	C391.960876,321.085999 391.969482,237.292999 391.969482,153.000000 
z"/>
<path fill="#FBFCFC" opacity="1.000000" stroke="none" 
	d="
M195.865265,348.126984 
	C193.453720,356.813599 190.189041,365.171570 190.884293,374.467041 
	C191.395630,381.303864 193.179062,387.517944 197.778671,392.988953 
	C198.537674,393.120117 198.894699,393.298615 199.437103,393.756683 
	C200.199997,394.572113 200.762848,395.160645 201.399597,396.082581 
	C201.607697,396.783875 201.565308,397.191315 201.208344,397.819946 
	C200.996002,398.050262 201.008911,397.983276 201.042526,397.989136 
	C200.461197,398.562897 199.601868,398.354706 198.956024,398.961212 
	C198.464890,401.518860 196.594757,401.743683 194.397308,402.012329 
	C190.854507,400.065857 187.259232,402.186981 183.593643,400.997375 
	C180.399231,400.990692 178.023819,399.713379 175.303284,398.268555 
	C174.983231,398.024261 175.015900,398.001373 175.018509,398.021149 
	C172.701553,396.768311 170.798019,395.103790 169.689667,392.224792 
	C168.476288,390.549988 167.918381,388.975342 167.409363,386.978455 
	C165.763809,382.654083 164.344910,378.649750 164.001434,373.978394 
	C163.994095,373.600983 164.009323,373.470551 164.033081,373.409302 
	C162.290100,370.889679 163.349213,367.893707 162.506470,364.843597 
	C162.091827,362.020447 160.727997,359.810303 161.001221,356.850159 
	C160.994568,356.441132 161.024887,356.505310 161.024292,356.540771 
	C160.667084,355.880585 160.249802,355.211090 160.063568,354.042511 
	C159.867416,350.884216 159.016510,348.241821 158.237030,345.253174 
	C157.377838,343.726868 156.766251,342.486053 156.195572,340.887512 
	C156.236465,340.529785 156.670975,340.321777 156.883743,340.264160 
	C157.096512,340.206573 157.419769,339.943909 157.419769,339.943909 
	C157.419769,339.943909 157.176270,339.575012 157.104935,339.287628 
	C156.928131,337.006439 155.131775,335.048462 157.229675,332.812683 
	C160.466339,332.401062 163.384094,332.570251 166.695801,332.513916 
	C168.414185,332.323090 169.719498,332.207092 171.005798,333.618988 
	C171.593903,334.282410 171.890289,334.688049 172.344910,335.426697 
	C172.628357,335.956635 172.726196,336.173492 172.942169,336.720581 
	C174.399536,339.757233 174.067596,343.293640 177.335098,345.390472 
	C179.423325,347.881836 182.150986,348.060120 185.054108,348.633423 
	C186.375214,348.629852 187.298187,348.351288 188.605331,347.999908 
	C191.155518,347.614471 193.324738,347.460114 195.865265,348.126984 
z"/>
<path fill="#FAFAFA" opacity="1.000000" stroke="none" 
	d="
M188.677216,318.203064 
	C189.077911,317.048798 189.320709,316.285126 190.651001,316.027924 
	C193.458496,316.847168 195.956482,315.546997 198.835663,315.997986 
	C199.406754,316.015472 199.593613,316.036835 200.058151,316.108124 
	C204.319397,319.143921 209.181549,320.222748 213.941254,322.379089 
	C215.963837,322.780548 217.770035,322.692047 219.185120,324.463898 
	C218.732437,326.852936 217.062607,327.708832 215.016373,328.722229 
	C213.834732,329.130402 213.008820,329.235931 211.751312,329.325867 
	C208.167786,329.396515 205.008331,329.350677 201.413544,329.396118 
	C198.054565,329.344971 195.127350,329.468719 191.777496,329.150208 
	C185.314606,328.029694 179.306839,327.581970 173.417053,329.845490 
	C172.185593,330.318756 170.968781,330.822510 169.210526,330.358612 
	C166.984833,327.569305 166.496628,324.770569 167.767761,321.351440 
	C167.985977,320.962952 168.001511,321.000946 167.983459,320.991272 
	C168.703903,320.336029 169.649490,320.612885 170.732910,320.193726 
	C170.977341,319.972321 170.997833,319.993164 170.998306,319.978485 
	C171.536591,319.511597 172.259872,319.532959 173.168594,319.105103 
	C173.684052,318.905670 173.893356,318.889191 174.257141,318.975891 
	C178.146072,317.952301 181.970078,318.773193 186.179047,318.514587 
	C187.188232,318.524933 187.763046,318.508820 188.677216,318.203064 
z"/>
<path fill="#121923" opacity="1.000000" stroke="none" 
	d="
M199.113297,394.167114 
	C198.599609,393.876160 198.392441,393.696259 198.204407,393.222534 
	C197.022568,389.189575 197.659378,386.688934 202.445419,386.887878 
	C206.180450,387.043121 208.018677,388.506317 206.102234,392.175659 
	C204.633102,394.988525 205.921097,396.031494 208.208893,396.978455 
	C215.841995,400.137878 222.873306,400.055725 229.614182,394.376770 
	C248.171448,378.743042 262.429596,359.640808 275.007782,339.128387 
	C275.268494,338.703278 275.465424,338.230896 275.770935,337.842651 
	C278.960052,333.789520 280.711304,330.253601 275.172394,326.175385 
	C272.432098,324.157745 271.112274,320.208527 271.679718,316.127899 
	C272.140686,315.778809 272.300842,315.622742 272.606140,315.769043 
	C273.361969,317.953705 273.812622,319.907043 274.611481,321.705719 
	C277.887756,329.082764 280.180237,329.401215 285.264038,323.562439 
	C287.216431,321.320099 289.368866,319.150482 291.773682,317.427094 
	C295.411743,314.819824 298.212250,316.406952 298.409546,320.885864 
	C298.675568,326.923920 294.130249,332.525421 288.191742,331.926788 
	C282.449249,331.347931 280.105377,334.082947 277.569519,338.369476 
	C265.848785,358.181702 252.153717,376.442047 235.224411,392.234131 
	C226.107758,400.738373 216.620148,404.143463 205.080292,397.533661 
	C204.593887,397.255066 203.850388,397.425415 203.071030,397.699921 
	C202.488541,398.049164 202.061661,398.085114 201.315399,398.085632 
	C200.769440,397.689758 200.542877,397.329224 200.501617,396.649689 
	C200.559235,395.455963 199.874908,394.965210 199.113297,394.167114 
z"/>
<path fill="#F7F7F7" opacity="1.000000" stroke="none" 
	d="
M279.847137,214.862122 
	C280.034088,215.454681 280.037781,215.802994 280.041412,216.412537 
	C279.999146,217.169510 279.891052,217.649872 279.502258,218.420319 
	C277.497589,222.620026 273.279480,221.190048 270.138672,222.994019 
	C268.810760,223.883545 267.833954,224.746979 266.217377,224.011932 
	C265.991333,223.057480 265.992493,222.402222 265.993958,221.419312 
	C265.951538,219.420929 264.298218,219.300079 263.188324,218.198990 
	C262.948242,217.972717 263.019653,217.976334 263.022705,218.011948 
	C262.308136,217.354477 261.257568,217.096146 260.445557,215.929276 
	C258.796906,214.103271 258.850067,212.396072 259.781677,210.273224 
	C259.985565,209.944672 260.005432,209.995850 259.978271,209.991699 
	C260.351532,209.474380 260.941772,209.404068 261.757141,209.133911 
	C261.990906,208.954361 262.001740,209.000916 261.980957,208.989105 
	C262.289795,208.683716 262.470947,208.313156 262.611755,207.563950 
	C262.995789,206.914185 263.367676,206.692093 264.132294,206.526215 
	C267.455902,206.198578 270.379211,206.336456 273.401123,207.940308 
	C274.795868,208.744232 275.814331,209.538956 277.315063,210.126068 
	C277.772644,210.381897 277.943604,210.503448 278.275024,210.893204 
	C279.067657,212.234375 278.976379,213.564499 279.847137,214.862122 
z"/>
<path fill="#0D1118" opacity="1.000000" stroke="none" 
	d="
M144.867737,224.763794 
	C153.762695,228.835373 162.829254,230.385788 172.213837,229.963623 
	C177.628250,229.720078 182.616852,228.698822 184.507187,222.292145 
	C185.575287,218.672195 187.461624,215.285904 189.077316,211.840271 
	C189.534927,210.864349 189.788788,209.393112 191.260239,209.468643 
	C192.340851,209.524109 192.724503,210.655151 193.245712,211.491455 
	C196.472107,216.668488 195.684113,220.698425 190.509491,224.211349 
	C185.981186,227.285522 181.074600,229.973648 181.097977,236.831863 
	C181.238159,237.211853 181.215714,237.194550 181.215454,237.206284 
	C180.857925,237.232559 180.563477,237.379532 180.145920,237.828415 
	C178.569366,240.663330 177.170273,243.310928 175.419785,246.034012 
	C174.541977,242.013458 177.536133,239.024002 178.432220,235.378494 
	C178.760452,234.043137 180.632629,232.738403 179.239441,231.421173 
	C178.134171,230.376175 176.422699,231.303421 174.963898,231.465591 
	C165.459869,232.522034 156.242218,231.308624 147.374664,227.700836 
	C146.492813,227.342056 145.777420,226.574112 144.840393,225.680481 
	C144.643265,225.149124 144.590500,224.933334 144.867737,224.763794 
z"/>
<path fill="#454545" opacity="1.000000" stroke="none" 
	d="
M234.766190,218.432281 
	C236.676453,220.632416 238.371414,222.273895 240.842239,224.666763 
	C236.975693,224.549026 235.693726,222.079071 233.717300,220.902679 
	C232.073227,219.924088 230.521652,217.974380 228.452484,219.576096 
	C226.698471,220.933853 226.685532,223.222137 227.209869,225.126205 
	C228.199417,228.719604 228.867432,232.187912 226.912872,236.021454 
	C226.846252,236.627655 226.722321,236.842896 226.770142,236.727570 
	C226.333023,232.032959 225.357132,227.681137 225.211319,223.301666 
	C225.041946,218.214279 227.473907,216.646835 232.834229,217.933136 
	C233.583633,217.056137 234.071335,217.520218 234.766190,218.432281 
z"/>
<path fill="#354A66" opacity="1.000000" stroke="none" 
	d="
M227.849548,175.946564 
	C227.545135,182.370300 224.115784,187.571625 221.939072,193.585327 
	C218.220413,192.604614 217.087738,190.482635 218.417221,186.448303 
	C219.979584,181.707230 222.931992,178.010468 227.849548,175.946564 
z"/>
<path fill="#3E3E3E" opacity="1.000000" stroke="none" 
	d="
M169.190338,329.467285 
	C176.338135,326.964691 183.228363,325.946960 190.737473,327.410767 
	C191.216232,327.872375 191.340164,328.111176 191.340408,328.732300 
	C187.861038,331.293823 184.093979,330.023010 180.522079,330.366974 
	C176.932571,330.712555 173.176529,330.613739 174.408875,336.170013 
	C174.701401,337.488922 174.077713,339.207031 172.228943,336.759888 
	C172.190826,336.373566 172.383881,336.264404 172.365555,336.155029 
	C171.941772,335.843445 171.577850,335.583984 171.108871,334.957123 
	C170.076706,334.261078 169.862106,332.862885 168.280579,333.017395 
	C167.814255,332.749908 167.644424,332.546173 167.696686,332.012390 
	C167.996506,331.307251 168.074234,330.932190 168.111877,330.270660 
	C168.295258,329.763306 168.518707,329.542480 169.190338,329.467285 
z"/>
<path fill="#0D1118" opacity="1.000000" stroke="none" 
	d="
M228.429077,175.981644 
	C224.419113,178.342773 221.598602,181.422409 219.810989,185.418808 
	C218.419785,188.529007 218.357285,191.441269 221.622070,193.888657 
	C221.983551,193.951248 222.013580,193.966080 222.010071,193.978088 
	C222.122147,194.243973 222.237717,194.497849 222.152908,195.119080 
	C221.574020,195.431931 221.195480,195.377426 220.533112,195.274353 
	C216.872620,192.926926 216.319305,189.695724 217.553574,186.124542 
	C219.567825,180.296570 223.198807,175.911057 229.660400,173.932632 
	C230.146790,174.093475 230.262756,174.280701 230.176331,174.729004 
	C229.533920,175.266068 229.093887,175.542053 228.429077,175.981644 
z"/>
<path fill="#2B2B2B" opacity="1.000000" stroke="none" 
	d="
M274.254211,200.924500 
	C266.915131,199.136520 259.648651,201.499649 252.424011,200.499298 
	C259.420929,198.481308 266.508301,198.182816 273.960449,199.703537 
	C274.296509,200.209473 274.361938,200.423340 274.254211,200.924500 
z"/>
<path fill="#E1E1E1" opacity="1.000000" stroke="none" 
	d="
M208.323288,268.780884 
	C203.177521,269.297760 200.854279,267.324371 202.594757,264.067078 
	C204.929779,262.382965 207.179886,262.464142 209.889801,263.033875 
	C213.529633,265.596558 213.425659,265.945679 208.323288,268.780884 
z"/>
<path fill="#2B2B2B" opacity="1.000000" stroke="none" 
	d="
M315.333710,195.143463 
	C321.441589,196.985016 327.212830,200.361938 332.780792,204.133728 
	C326.904419,201.540802 320.336609,200.277756 315.333710,195.143463 
z"/>
<path fill="#121923" opacity="1.000000" stroke="none" 
	d="
M307.332916,183.880005 
	C309.916656,186.866516 308.226562,191.783371 313.275879,193.205017 
	C307.761200,193.984299 311.312134,198.624924 309.187073,201.406372 
	C308.258759,197.006790 310.643005,191.770203 304.336884,190.124390 
	C303.908722,189.666443 303.787201,189.397095 303.856232,188.727570 
	C304.720795,188.594131 305.394836,188.860870 306.429047,189.170166 
	C306.789215,189.212708 307.218170,189.425537 307.218170,189.425537 
	C307.218170,189.425537 307.391388,188.979141 307.467407,188.752045 
	C307.160553,187.277374 306.777618,186.029816 306.283386,184.405060 
	C306.432373,183.914520 306.692627,183.801178 307.332916,183.880005 
z"/>
<path fill="#515151" opacity="1.000000" stroke="none" 
	d="
M239.886383,169.802475 
	C244.562714,166.500305 250.276291,166.590286 256.011658,166.817795 
	C250.793625,167.887802 245.793167,170.245239 239.886383,169.802475 
z"/>
<path fill="#3E3E3E" opacity="1.000000" stroke="none" 
	d="
M326.791504,243.955170 
	C322.727173,246.545731 318.361359,248.919144 313.297852,250.660278 
	C312.580139,250.658325 312.227234,250.541031 311.800323,250.114441 
	C316.450958,247.328644 321.141968,244.689713 326.791504,243.955170 
z"/>
<path fill="#2B2B2B" opacity="1.000000" stroke="none" 
	d="
M193.790131,290.128784 
	C193.567368,294.864807 190.522659,295.025574 187.414062,294.710785 
	C184.502853,294.415894 181.493332,294.470825 178.395355,292.987488 
	C177.901794,292.711090 177.784454,292.543549 177.847717,292.128052 
	C181.566376,292.225006 185.099014,292.715973 188.644989,292.847351 
	C190.197052,292.904816 192.388046,293.642487 193.019318,290.649841 
	C193.291885,290.064911 193.523849,289.870514 193.790131,290.128784 
z"/>
<path fill="#454545" opacity="1.000000" stroke="none" 
	d="
M286.171509,169.711517 
	C280.834778,169.069000 275.709259,168.233765 270.583740,167.398529 
	C275.846008,165.688446 280.791718,167.036606 285.945374,168.672394 
	C286.227570,169.170563 286.305115,169.344696 286.171509,169.711517 
z"/>
<path fill="#3E3E3E" opacity="1.000000" stroke="none" 
	d="
M173.705872,249.625168 
	C172.011810,254.287964 170.181488,258.630585 168.078613,263.139832 
	C167.966888,263.989166 167.700775,264.300812 166.889618,263.842072 
	C167.938583,258.466797 170.419983,254.012115 172.689850,249.154907 
	C173.170761,249.067886 173.370163,249.186432 173.705872,249.625168 
z"/>
<path fill="#121923" opacity="1.000000" stroke="none" 
	d="
M274.253723,209.179688 
	C270.677826,208.279068 267.486664,206.518661 263.778137,208.155243 
	C263.431580,207.610992 263.323486,207.384277 263.234985,206.782913 
	C263.347473,206.177109 263.440338,205.945969 263.788544,205.442047 
	C269.100586,204.683365 273.997833,205.406799 279.012512,207.404938 
	C279.176025,207.904556 279.092834,208.109573 278.733398,208.498108 
	C277.202209,209.159912 275.894318,209.192215 274.253723,209.179688 
z"/>
<path fill="#454545" opacity="1.000000" stroke="none" 
	d="
M280.450134,280.755371 
	C279.226776,285.645996 277.882050,290.436401 274.484436,294.682617 
	C276.517609,290.708160 276.355286,285.598846 279.107025,281.126648 
	C279.539825,280.740540 279.808807,280.639343 280.450134,280.755371 
z"/>
<path fill="#3E3E3E" opacity="1.000000" stroke="none" 
	d="
M222.563232,286.079956 
	C225.389679,281.396576 224.217102,277.046936 221.973358,272.334412 
	C222.311020,271.619171 222.801880,271.489655 223.671509,271.788147 
	C225.802612,276.370636 227.281647,280.739075 224.174698,285.544403 
	C223.716156,286.303375 223.315369,286.446869 222.563232,286.079956 
z"/>
<path fill="#3E3E3E" opacity="1.000000" stroke="none" 
	d="
M214.254166,322.491333 
	C209.091721,321.661865 204.267715,320.260864 200.336151,316.491333 
	C204.741943,317.793945 209.148056,319.429901 213.843231,321.242737 
	C214.251190,321.665131 214.370056,321.910675 214.254166,322.491333 
z"/>
<path fill="#454545" opacity="1.000000" stroke="none" 
	d="
M165.276016,267.743591 
	C162.749954,271.039673 160.985168,274.394226 160.177795,278.593140 
	C159.953278,279.081238 159.780609,279.212158 159.337433,279.162872 
	C158.571274,274.058533 160.530319,270.216492 164.615311,267.146057 
	C165.096252,267.248322 165.239182,267.367096 165.276016,267.743591 
z"/>
<path fill="#454545" opacity="1.000000" stroke="none" 
	d="
M221.300049,288.710724 
	C220.015091,290.820038 218.044388,291.102936 215.875198,291.906616 
	C215.537933,289.673462 217.114899,286.946991 214.177261,285.255676 
	C213.893112,284.768585 213.769485,284.601471 213.834137,284.185822 
	C216.026428,284.196472 217.383636,285.345795 218.005402,287.194946 
	C218.451935,288.523010 219.147018,288.620239 220.445175,287.820190 
	C221.131378,287.656677 221.394333,287.949982 221.300049,288.710724 
z"/>
<path fill="#3E3E3E" opacity="1.000000" stroke="none" 
	d="
M163.693558,373.865967 
	C166.386169,377.478271 165.994232,382.183624 167.829071,386.628265 
	C167.654236,387.176514 167.406204,387.344910 166.733978,387.364075 
	C164.556915,383.027557 163.641052,378.653687 163.693558,373.865967 
z"/>
<path fill="#363636" opacity="1.000000" stroke="none" 
	d="
M261.278564,226.756622 
	C255.315674,227.637405 249.585388,228.474213 243.434692,227.010803 
	C242.884430,226.814926 242.753143,226.635712 242.796997,226.173004 
	C248.681107,225.906311 254.390060,225.923111 260.570312,225.960556 
	C261.198059,226.153046 261.354553,226.324905 261.278564,226.756622 
z"/>
<path fill="#515151" opacity="1.000000" stroke="none" 
	d="
M263.850952,205.743607 
	C264.049103,206.281723 263.979614,206.602921 263.724884,207.380920 
	C263.539673,207.837692 263.560486,207.847092 263.535400,207.890564 
	C263.246094,208.042572 262.981842,208.151123 262.311584,208.122467 
	C260.188690,206.135437 258.456635,207.605957 256.676788,207.871979 
	C254.643677,208.175858 252.682861,209.659882 250.110855,208.196808 
	C253.905045,205.571182 258.207367,205.856186 262.606873,205.079559 
	C263.210785,205.258102 263.397064,205.392395 263.850952,205.743607 
z"/>
<path fill="#3E3E3E" opacity="1.000000" stroke="none" 
	d="
M338.004272,208.178940 
	C342.120483,209.886185 345.642822,211.901749 346.276184,217.317490 
	C342.463013,214.525681 341.981140,209.660828 338.004272,208.178940 
z"/>
<path fill="#363636" opacity="1.000000" stroke="none" 
	d="
M182.800385,400.485474 
	C186.659607,401.318817 190.541412,399.361847 194.081726,401.583069 
	C190.616837,402.025177 187.190674,402.035645 183.390656,401.933655 
	C182.662689,401.535431 182.526535,401.163300 182.800385,400.485474 
z"/>
<path fill="#E1E1E1" opacity="1.000000" stroke="none" 
	d="
M285.652222,212.773193 
	C288.640808,217.770767 284.750427,219.454865 281.749481,222.282669 
	C280.704346,218.528641 284.855103,216.812531 283.957062,213.398529 
	C284.359406,212.615295 284.809540,212.461975 285.652222,212.773193 
z"/>
<path fill="#2B2B2B" opacity="1.000000" stroke="none" 
	d="
M274.178253,295.365356 
	C274.373077,295.044128 274.526276,295.129608 274.609985,295.103394 
	C276.050873,298.770935 273.156616,301.771301 273.100525,305.598022 
	C273.162323,305.971619 272.956238,305.777161 272.832733,305.846588 
	C272.460785,306.296844 272.110291,306.464996 271.427124,306.201233 
	C272.125458,302.550201 273.054443,299.118408 274.178253,295.365356 
z"/>
<path fill="#121923" opacity="1.000000" stroke="none" 
	d="
M208.362106,269.024261 
	C208.242447,266.904602 210.570801,267.325256 211.575668,266.057190 
	C212.590820,264.776123 212.643738,264.128113 210.486481,263.815247 
	C209.708710,263.489471 209.557159,263.146545 209.853027,262.501465 
	C211.760315,262.420837 213.428909,262.541473 215.356964,262.478882 
	C215.757767,262.196381 215.899155,262.097168 215.848236,262.171600 
	C215.719742,262.703552 215.783539,263.061859 215.934387,263.686005 
	C216.132538,264.245514 216.243652,264.539215 216.142181,265.253235 
	C212.787231,265.208557 211.754761,269.261505 208.362106,269.024261 
z"/>
<path fill="#2B2B2B" opacity="1.000000" stroke="none" 
	d="
M214.359436,322.952698 
	C214.042267,322.592346 214.065125,322.358215 214.110153,321.771851 
	C216.802658,321.972076 219.472992,322.524536 222.545013,323.085388 
	C224.180771,324.685852 226.901978,323.066315 227.919464,325.685730 
	C225.188568,327.988800 222.545074,326.560242 219.584869,325.247742 
	C217.761490,324.312805 216.230484,323.695862 214.359436,322.952698 
z"/>
<path fill="#363636" opacity="1.000000" stroke="none" 
	d="
M235.423218,214.719391 
	C234.053680,210.034927 237.357483,207.621506 241.056320,205.446213 
	C238.931793,208.296188 237.327789,211.467758 235.423218,214.719391 
z"/>
<path fill="#515151" opacity="1.000000" stroke="none" 
	d="
M293.011627,171.226669 
	C297.234833,171.196457 299.144653,174.148102 301.748962,176.660553 
	C299.171021,175.387970 296.296295,173.955856 293.205963,172.261963 
	C292.869324,171.768433 292.748352,171.536682 293.011627,171.226669 
z"/>
<path fill="#FAFAFA" opacity="1.000000" stroke="none" 
	d="
M230.339539,174.964630 
	C230.047134,174.813095 230.120316,174.636124 230.112167,174.182709 
	C230.301575,173.122513 229.538193,172.982117 229.250229,172.281860 
	C232.821564,172.832779 235.291260,169.151062 239.125778,169.861130 
	C239.485855,169.939362 239.440048,169.988815 239.470398,169.962799 
	C237.387451,173.043533 233.642822,173.281937 230.339539,174.964630 
z"/>
<path fill="#2B2B2B" opacity="1.000000" stroke="none" 
	d="
M280.983154,280.656250 
	C280.564087,280.949615 280.305664,280.926544 279.659027,280.872620 
	C280.380707,277.590912 281.759521,274.468567 283.871063,271.316711 
	C284.328217,270.917480 284.599030,270.808899 285.237915,270.937012 
	C284.118591,274.229065 282.631195,277.284424 280.983154,280.656250 
z"/>
<path fill="#3E3E3E" opacity="1.000000" stroke="none" 
	d="
M248.017670,189.529312 
	C251.772797,188.155792 255.050034,185.380646 260.135040,185.889435 
	C256.553925,188.241364 253.250015,188.950439 249.776642,190.146957 
	C248.875931,190.480392 248.410614,190.397095 248.017670,189.529312 
z"/>
<path fill="#515151" opacity="1.000000" stroke="none" 
	d="
M285.851715,270.989441 
	C285.348480,271.142700 285.091003,271.111755 284.445496,271.053406 
	C285.080200,267.908691 287.397827,265.644562 289.572083,262.917297 
	C290.041595,262.987732 290.222107,263.236420 290.251038,263.920410 
	C288.765472,266.505554 287.431458,268.655396 285.851715,270.989441 
z"/>
<path fill="#454545" opacity="1.000000" stroke="none" 
	d="
M177.858093,291.561707 
	C178.028320,291.880066 178.021988,292.379303 178.020554,292.628967 
	C175.037567,292.513824 172.186081,291.710083 169.181717,290.178497 
	C168.735840,289.815369 168.606415,289.627930 168.738113,289.220093 
	C172.077164,289.043854 174.814240,290.408020 177.858093,291.561707 
z"/>
<path fill="#616162" opacity="1.000000" stroke="none" 
	d="
M195.438110,283.037476 
	C195.386581,279.187592 198.266098,282.096527 199.889191,281.364746 
	C201.529877,280.625031 203.746796,281.163391 206.038742,281.397217 
	C206.286926,282.087280 206.050079,282.390228 205.348999,282.675812 
	C202.015289,282.897095 198.959229,282.979797 195.438110,283.037476 
z"/>
<path fill="#FCFCFC" opacity="1.000000" stroke="none" 
	d="
M193.872955,290.136810 
	C193.824478,290.581451 193.373535,290.583160 193.216736,290.421265 
	C189.842361,286.056763 190.019653,284.927368 194.585419,283.011780 
	C194.973053,283.012451 195.000671,282.999054 194.994019,283.012970 
	C194.632050,285.248657 194.276749,287.470398 193.872955,290.136810 
z"/>
<path fill="#3E3E3E" opacity="1.000000" stroke="none" 
	d="
M271.025208,306.098694 
	C271.533356,305.975098 271.870178,305.968170 272.458130,305.938629 
	C272.770355,308.996490 272.831512,312.076935 272.821960,315.614441 
	C272.751251,316.071472 272.361633,316.026520 272.171082,315.980713 
	C269.175354,313.330261 271.640961,310.127777 270.854919,306.941223 
	C270.711334,306.604553 270.853912,306.215332 271.025208,306.098694 
z"/>
<path fill="#515151" opacity="1.000000" stroke="none" 
	d="
M169.478012,329.237976 
	C169.379364,329.683044 169.120193,329.753113 168.466400,329.903687 
	C165.674469,327.224701 164.648499,324.332764 167.599396,321.028442 
	C168.429352,323.596375 166.988159,326.547455 169.478012,329.237976 
z"/>
<path fill="#121923" opacity="1.000000" stroke="none" 
	d="
M346.670959,227.053131 
	C347.504456,223.933380 346.744873,220.980652 346.003540,216.884689 
	C349.276123,220.369324 348.832275,223.275833 348.001282,226.594070 
	C347.595856,227.067810 347.321503,227.177887 346.670959,227.053131 
z"/>
<path fill="#454545" opacity="1.000000" stroke="none" 
	d="
M182.654602,400.128967 
	C183.022720,400.602661 183.023468,400.950806 183.020508,401.560059 
	C179.549072,402.666992 177.342896,400.122711 174.845810,398.376831 
	C177.840042,397.126007 179.661865,400.047394 182.654602,400.128967 
z"/>
<path fill="#2B2B2B" opacity="1.000000" stroke="none" 
	d="
M235.163635,215.223816 
	C235.513245,215.033768 235.670364,215.085281 235.751556,215.069748 
	C237.338196,214.826874 239.050125,215.494110 240.628937,213.867004 
	C241.198486,213.661270 241.409241,213.618530 241.876373,213.771515 
	C240.692871,216.756195 238.059219,217.650345 235.124237,218.641846 
	C234.981506,218.990936 235.006119,219.053772 235.038269,219.043488 
	C234.713959,218.669174 234.541855,218.229095 234.570145,217.356964 
	C234.678299,216.465271 234.746170,215.939560 235.163635,215.223816 
z"/>
<path fill="#2B2B2B" opacity="1.000000" stroke="none" 
	d="
M265.659851,223.811646 
	C267.232605,224.031845 268.127991,223.431335 269.055115,222.289093 
	C270.513580,221.253754 271.668335,221.347107 272.335052,223.188019 
	C269.673401,224.458755 267.205658,225.279480 264.354828,226.091095 
	C263.628876,225.662415 263.487762,225.183380 263.750336,224.314087 
	C264.411316,223.959045 264.870422,223.934799 265.659851,223.811646 
z"/>
<path fill="#515151" opacity="1.000000" stroke="none" 
	d="
M337.390381,238.186432 
	C335.460358,240.340302 333.402618,241.297241 331.266998,242.083328 
	C331.036255,241.691620 330.805481,241.299911 330.574738,240.908203 
	C332.490631,239.653580 334.406525,238.398956 336.649109,237.039993 
	C337.183533,237.199677 337.391296,237.463715 337.390381,238.186432 
z"/>
<path fill="#454545" opacity="1.000000" stroke="none" 
	d="
M346.098633,227.059479 
	C346.557648,226.837708 346.820557,226.857117 347.476868,226.917145 
	C346.962158,229.272522 346.216919,231.703033 343.396973,232.975586 
	C342.813019,230.569717 345.303955,229.390167 346.098633,227.059479 
z"/>
<path fill="#151313" opacity="1.000000" stroke="none" 
	d="
M272.538635,223.576477 
	C271.944397,222.381592 271.118530,221.952728 269.562317,221.975311 
	C269.867493,219.868439 271.657410,220.685455 272.885101,220.861221 
	C275.589661,221.248444 277.194946,220.025604 278.781555,217.709534 
	C279.755402,218.316589 279.520813,219.227493 279.401550,220.558304 
	C277.697052,223.103714 274.626068,221.551300 272.538635,223.576477 
z"/>
<path fill="#2B2B2B" opacity="1.000000" stroke="none" 
	d="
M216.313354,260.191833 
	C215.942841,256.554840 219.559372,255.062439 220.355423,251.719299 
	C220.860916,251.484787 221.143661,251.527023 221.524628,251.986664 
	C220.519440,254.749207 219.416061,257.094360 218.168335,259.757385 
	C217.608078,260.413818 217.136963,260.531372 216.313354,260.191833 
z"/>
<path fill="#454545" opacity="1.000000" stroke="none" 
	d="
M306.343750,253.296570 
	C303.995117,254.875137 301.986298,256.655823 299.160645,255.863464 
	C300.849335,254.053162 303.135864,253.224335 305.669281,252.187958 
	C306.175354,252.394623 306.332886,252.639740 306.343750,253.296570 
z"/>
<path fill="#363636" opacity="1.000000" stroke="none" 
	d="
M290.431519,264.263062 
	C290.048462,264.087891 289.997498,263.820099 289.903778,263.145691 
	C291.358032,260.949127 292.767670,259.051514 296.006409,257.635773 
	C294.609558,261.017242 292.179779,262.203522 290.431519,264.263062 
z"/>
<path fill="#515151" opacity="1.000000" stroke="none" 
	d="
M230.566711,195.015472 
	C232.814026,192.416458 236.107971,193.069946 240.294876,191.811661 
	C236.972778,195.867615 233.594757,193.947250 230.566711,195.015472 
z"/>
<path fill="#2B2B2B" opacity="1.000000" stroke="none" 
	d="
M287.321533,206.243439 
	C284.197754,204.967163 281.599792,203.808380 278.920715,202.295868 
	C279.018799,201.820267 279.197998,201.698410 279.690430,201.663177 
	C283.240753,201.744843 285.651489,203.681274 288.483826,205.507843 
	C288.447449,205.966187 288.147400,206.163589 287.321533,206.243439 
z"/>
<path fill="#FCFCFC" opacity="1.000000" stroke="none" 
	d="
M226.534897,236.638519 
	C226.941910,236.397003 226.930878,236.460220 226.950531,236.436310 
	C226.970154,239.473007 227.003433,242.545593 223.670563,244.793884 
	C223.488129,244.950211 223.677338,244.852036 223.615402,244.951767 
	C222.452286,241.780487 224.989136,239.563873 226.534897,236.638519 
z"/>
<path fill="#3E3E3E" opacity="1.000000" stroke="none" 
	d="
M157.961151,345.381775 
	C161.318802,346.425720 159.398636,350.032623 160.894989,352.604370 
	C160.529633,353.339539 160.148773,353.485168 159.448029,353.210388 
	C158.780991,350.592712 158.356934,348.194305 157.961151,345.381775 
z"/>
<path fill="#3E3E3E" opacity="1.000000" stroke="none" 
	d="
M229.992432,194.577957 
	C230.229080,195.029694 230.290298,194.923615 230.276810,194.896027 
	C227.956726,196.977005 225.198608,195.731491 222.291428,195.691193 
	C221.953735,195.236755 221.954926,194.987091 221.981354,194.363739 
	C224.589645,194.035461 227.172699,194.080841 229.992432,194.577957 
z"/>
<path fill="#454545" opacity="1.000000" stroke="none" 
	d="
M307.629150,183.745056 
	C307.455444,184.088425 307.197937,184.104721 306.556274,184.074432 
	C304.781281,181.867920 303.390442,179.707993 302.022644,177.184082 
	C302.045715,176.820099 301.982239,176.868790 301.957581,176.898315 
	C305.141754,177.934128 306.177368,180.819763 307.629150,183.745056 
z"/>
<path fill="#454545" opacity="1.000000" stroke="none" 
	d="
M157.211060,333.019470 
	C156.360764,335.722534 158.282822,337.885162 157.889221,340.693237 
	C157.638428,340.930786 157.263702,340.737854 156.562729,340.537354 
	C155.833374,338.135101 155.430283,335.740417 155.262161,333.059387 
	C155.697510,332.768341 155.897873,332.763702 156.386139,332.663177 
	C156.872208,332.617645 157.070358,332.667938 157.211060,333.019470 
z"/>
<path fill="#454545" opacity="1.000000" stroke="none" 
	d="
M337.507568,238.493500 
	C337.138763,238.361267 337.095856,238.077393 337.014343,237.364594 
	C338.753754,235.608246 340.123627,233.702911 342.764130,233.095062 
	C343.117157,233.093277 343.057495,233.044220 343.033813,233.015656 
	C342.593658,236.037552 339.710632,236.703491 337.507568,238.493500 
z"/>
<path fill="#363636" opacity="1.000000" stroke="none" 
	d="
M205.451462,282.889465 
	C205.347595,282.545685 205.623840,282.277008 206.133148,281.830444 
	C208.900787,281.788391 211.385651,282.149902 213.863113,283.602875 
	C214.009552,284.103607 213.996658,284.269928 214.000244,284.685974 
	C211.288361,284.278656 208.559967,283.621613 205.451462,282.889465 
z"/>
<path fill="#363636" opacity="1.000000" stroke="none" 
	d="
M303.359924,209.103363 
	C300.705383,211.247437 297.739990,210.870651 294.388000,209.983734 
	C293.912140,209.572037 293.794464,209.292679 293.873352,208.603333 
	C296.629761,208.772934 299.192261,209.258209 302.214111,208.327164 
	C302.828094,208.413071 303.020111,208.581497 303.359924,209.103363 
z"/>
<path fill="#454545" opacity="1.000000" stroke="none" 
	d="
M223.182632,245.380875 
	C223.364243,245.149658 223.465622,245.017807 223.382263,245.033096 
	C224.730881,247.656281 222.777603,249.657349 221.848358,252.143250 
	C221.436295,252.257370 221.249741,252.110641 220.820679,251.703247 
	C220.928940,249.309235 221.525940,247.278214 223.182632,245.380875 
z"/>
<path fill="#363636" opacity="1.000000" stroke="none" 
	d="
M285.924561,212.660828 
	C285.518646,213.067215 285.076660,213.143616 284.314056,213.117828 
	C283.463196,211.477127 282.108093,210.810776 280.543243,209.952515 
	C280.042633,209.752991 279.848297,209.643265 279.702271,209.201874 
	C279.931824,208.739563 280.113098,208.608887 280.612885,208.373703 
	C283.253815,208.805283 284.607208,210.524017 285.924561,212.660828 
z"/>
<path fill="#515151" opacity="1.000000" stroke="none" 
	d="
M293.812927,208.051697 
	C294.063965,208.469681 294.058044,208.746048 294.040955,209.436905 
	C291.539246,209.254196 289.332642,208.045929 286.998169,206.401657 
	C287.120697,206.064789 287.445679,206.003632 288.259094,205.855652 
	C290.350342,206.482574 291.953156,207.196335 293.812927,208.051697 
z"/>
<path fill="#2B2B2B" opacity="1.000000" stroke="none" 
	d="
M162.419800,363.853027 
	C163.280807,366.845001 163.752640,369.659790 164.140656,372.911346 
	C161.123550,371.210938 162.277176,367.717834 161.269623,364.505707 
	C161.524368,363.938019 161.777512,363.806976 162.419800,363.853027 
z"/>
<path fill="#515151" opacity="1.000000" stroke="none" 
	d="
M303.804810,188.129089 
	C304.051514,188.595520 304.056274,188.863647 304.045654,189.533783 
	C301.732117,188.965363 299.434052,187.994949 296.864624,186.826660 
	C296.637512,186.319870 296.681702,186.010986 297.181946,185.596893 
	C299.612946,186.304703 301.587891,187.117752 303.804810,188.129089 
z"/>
<path fill="#2B2B2B" opacity="1.000000" stroke="none" 
	d="
M275.879486,182.367599 
	C273.013153,183.207001 270.134674,183.638519 266.877441,184.126801 
	C268.307129,181.064926 270.885071,182.201691 273.125061,181.471130 
	C274.301880,181.652664 275.165802,181.417603 275.879486,182.367599 
z"/>
<path fill="#2B2B2B" opacity="1.000000" stroke="none" 
	d="
M169.664185,391.825623 
	C171.785721,393.785919 173.553131,395.578705 175.170837,397.706207 
	C171.483170,398.037262 170.538788,394.965790 168.746277,392.454346 
	C168.881134,391.956238 169.095596,391.807190 169.664185,391.825623 
z"/>
<path fill="#454545" opacity="1.000000" stroke="none" 
	d="
M162.810455,363.635376 
	C162.552872,364.044708 162.296799,364.059235 161.655975,364.071411 
	C161.203201,361.687775 159.523453,359.492004 160.725800,356.718262 
	C162.868134,358.368744 161.656509,361.120972 162.810455,363.635376 
z"/>
<path fill="#363636" opacity="1.000000" stroke="none" 
	d="
M161.143936,282.572937 
	C163.003357,284.522064 164.780426,286.177612 167.051620,287.747681 
	C167.001358,288.206726 166.830444,288.345947 166.328949,288.478760 
	C163.568527,287.824371 162.091202,286.034454 160.584686,283.785095 
	C160.522278,283.205841 160.618500,282.930786 161.143936,282.572937 
z"/>
<path fill="#363636" opacity="1.000000" stroke="none" 
	d="
M198.973907,315.668854 
	C196.673386,317.658691 193.898895,317.121979 191.056992,316.409393 
	C193.525864,315.457642 196.036774,314.316345 198.973907,315.668854 
z"/>
<path fill="#454545" opacity="1.000000" stroke="none" 
	d="
M216.153351,265.881378 
	C215.927567,265.385681 215.925522,265.097839 215.972443,264.380890 
	C217.980637,265.103058 220.382538,265.806824 221.098221,268.725708 
	C218.787033,268.600067 217.818802,266.935120 216.153351,265.881378 
z"/>
<path fill="#363636" opacity="1.000000" stroke="none" 
	d="
M306.550049,253.579620 
	C306.164001,253.448868 306.130920,253.189438 306.057831,252.539749 
	C307.686890,251.397186 309.355957,250.644882 311.368591,249.870270 
	C312.013947,250.010345 312.315735,250.172745 312.782532,250.533539 
	C310.932678,251.638275 308.917816,252.544617 306.550049,253.579620 
z"/>
<path fill="#515151" opacity="1.000000" stroke="none" 
	d="
M209.688904,262.151550 
	C210.220062,262.604706 210.252060,262.919067 210.145660,263.478973 
	C207.947571,263.682983 205.763199,263.230804 203.307404,264.079315 
	C203.093460,263.338715 201.651001,262.119354 203.582443,262.064880 
	C205.482742,262.011261 207.384811,262.020996 209.688904,262.151550 
z"/>
<path fill="#3E3E3E" opacity="1.000000" stroke="none" 
	d="
M296.845886,186.336594 
	C294.228729,186.046768 291.937042,185.311157 289.196533,183.492249 
	C292.684509,182.897400 294.815796,184.240036 297.350647,185.263794 
	C297.458130,185.675903 297.278290,185.860168 296.845886,186.336594 
z"/>
<path fill="#0D1118" opacity="1.000000" stroke="none" 
	d="
M188.201111,318.816498 
	C183.820572,319.225586 179.572281,319.350647 174.865753,319.251099 
	C178.442825,316.560486 182.890182,318.722839 187.533981,317.951691 
	C188.108627,318.180328 188.220993,318.356384 188.201111,318.816498 
z"/>
<path fill="#2B2B2B" opacity="1.000000" stroke="none" 
	d="
M280.801758,181.604645 
	C283.640442,181.552399 286.334106,181.915268 289.027802,182.278122 
	C288.994843,182.757172 288.961914,183.236221 288.928955,183.715256 
	C286.574677,183.467346 284.220398,183.219437 281.468750,182.883392 
	C280.933167,182.536743 280.794983,182.278229 280.801758,181.604645 
z"/>
<path fill="#616162" opacity="1.000000" stroke="none" 
	d="
M280.604523,181.052429 
	C280.984711,181.455811 281.022705,181.722092 281.066040,182.391815 
	C279.630951,182.827438 278.190521,182.859619 276.320892,182.833649 
	C275.304993,182.449677 274.718323,182.123856 273.828430,181.634094 
	C275.702911,180.459549 278.006470,180.977264 280.604523,181.052429 
z"/>
<path fill="#3E3E3E" opacity="1.000000" stroke="none" 
	d="
M259.646301,210.024796 
	C261.382050,211.540634 258.844696,213.703415 260.926880,215.590469 
	C260.838470,216.147034 260.569794,216.339676 259.849304,216.327850 
	C257.301483,214.148270 257.602020,212.137146 259.646301,210.024796 
z"/>
<path fill="#FCFCFC" opacity="1.000000" stroke="none" 
	d="
M244.216522,204.715302 
	C245.189514,202.291000 247.449097,202.990570 250.524094,201.825562 
	C248.325287,204.545013 246.454987,204.733292 244.216522,204.715302 
z"/>
<path fill="#0D1118" opacity="1.000000" stroke="none" 
	d="
M267.551819,165.986450 
	C268.130249,166.103836 268.361816,166.191055 268.375580,166.304657 
	C268.399689,166.503723 268.291901,166.900925 268.236542,166.901413 
	C264.978455,166.930527 261.720032,166.927444 257.101349,166.927444 
	C261.231842,165.405487 264.226624,166.259003 267.551819,165.986450 
z"/>
<path fill="#0D1118" opacity="1.000000" stroke="none" 
	d="
M167.464966,331.689880 
	C167.938416,331.893738 167.958069,332.105164 167.980896,332.635101 
	C164.668716,333.022583 161.353333,333.091522 157.595779,333.240570 
	C157.153610,333.320679 157.233231,333.111298 157.147293,333.039459 
	C156.929062,332.807343 156.796768,332.647064 156.820404,332.216858 
	C160.303116,331.134033 163.665695,331.759979 167.464966,331.689880 
z"/>
<path fill="#454545" opacity="1.000000" stroke="none" 
	d="
M247.690552,189.151688 
	C248.299683,189.405212 248.578690,189.680313 249.134003,190.067551 
	C248.062286,191.358582 246.381821,191.615173 244.344330,191.953827 
	C243.647507,191.605637 243.527466,191.125275 243.914581,190.333923 
	C245.255798,189.776062 246.308105,189.474670 247.690552,189.151688 
z"/>
<path fill="#FCFCFC" opacity="1.000000" stroke="none" 
	d="
M165.522186,267.928314 
	C165.169937,268.001373 164.995117,267.581970 164.974213,267.355774 
	C165.020691,265.975922 164.967422,264.781708 166.399384,263.704407 
	C166.960022,263.256165 167.181961,263.173981 167.625702,263.254822 
	C168.038986,265.195068 167.588089,266.793274 165.522186,267.928314 
z"/>
<path fill="#F7F7F7" opacity="1.000000" stroke="none" 
	d="
M242.486801,213.976105 
	C241.939850,213.932419 241.746948,213.897568 241.270889,213.783356 
	C241.352997,211.997971 242.560120,211.382706 244.140518,211.430695 
	C244.395432,211.438446 244.831696,212.112564 244.837631,212.484177 
	C244.858719,213.803284 243.840149,213.920013 242.486801,213.976105 
z"/>
<path fill="#363636" opacity="1.000000" stroke="none" 
	d="
M169.952652,391.658600 
	C169.792770,392.008667 169.567230,392.024170 169.004181,392.072510 
	C167.512115,390.922943 166.920593,389.446472 166.389221,387.555969 
	C166.574509,387.175171 166.839249,387.135498 167.503143,387.051971 
	C168.563858,388.446747 169.225418,389.885406 169.952652,391.658600 
z"/>
<path fill="#454545" opacity="1.000000" stroke="none" 
	d="
M302.837463,208.559570 
	C303.907684,207.163025 305.179291,206.081406 306.760071,204.909668 
	C307.207458,204.993118 307.345642,205.166687 307.473022,205.672882 
	C307.045868,207.784653 305.558533,208.477066 303.833923,209.358307 
	C303.351440,209.262726 303.195129,209.068619 302.837463,208.559570 
z"/>
<path fill="#2B2B2B" opacity="1.000000" stroke="none" 
	d="
M262.724335,218.273071 
	C264.752899,217.787857 266.121460,218.820404 267.392639,219.804932 
	C268.344177,220.541901 268.025116,221.191666 266.369324,221.098312 
	C264.829620,220.252258 263.665039,219.412842 262.724335,218.273071 
z"/>
<path fill="#FCFCFC" opacity="1.000000" stroke="none" 
	d="
M307.777771,205.942245 
	C307.350677,205.823090 307.239166,205.640686 307.098480,205.138916 
	C307.809143,203.995819 308.006622,201.665253 309.389038,202.707764 
	C310.861969,203.818527 309.472137,205.161530 307.777771,205.942245 
z"/>
<path fill="#FCFCFC" opacity="1.000000" stroke="none" 
	d="
M221.479965,288.959167 
	C220.927460,288.695404 220.713150,288.391083 220.584137,287.814270 
	C220.987152,287.109222 221.304886,286.676605 221.968033,286.034180 
	C222.696213,285.750183 223.078979,285.676025 223.730148,285.732422 
	C223.984192,287.389862 223.405167,288.513855 221.479965,288.959167 
z"/>
<path fill="#363636" opacity="1.000000" stroke="none" 
	d="
M159.024979,279.328888 
	C159.243484,278.979492 159.420059,278.976318 159.861298,278.961731 
	C161.416687,279.528931 160.934067,280.903961 161.498856,282.166077 
	C161.383987,282.657440 161.194839,282.824738 160.715881,283.236450 
	C159.945038,282.212280 159.464035,280.943726 159.024979,279.328888 
z"/>
<path fill="#0D1118" opacity="1.000000" stroke="none" 
	d="
M173.999908,249.647766 
	C173.559265,249.813004 173.352249,249.605118 173.096222,249.135529 
	C173.193497,248.168701 173.415634,247.388031 173.363861,246.303574 
	C173.089981,245.999771 172.987381,246.003525 172.987122,246.054840 
	C173.147491,245.960190 173.308105,245.814194 173.757843,245.817932 
	C174.270309,246.006317 174.493668,246.044998 175.045898,246.181030 
	C174.969070,247.302292 174.563370,248.326248 173.999908,249.647766 
z"/>
<path fill="#F7F7F7" opacity="1.000000" stroke="none" 
	d="
M263.644897,224.015152 
	C263.917358,224.449097 263.882477,224.914917 263.909698,225.731369 
	C263.453583,226.967300 262.591705,227.030609 261.374695,227.023468 
	C261.107666,226.843643 261.169220,226.670822 261.136169,226.239609 
	C261.806915,225.336487 262.572266,224.691757 263.644897,224.015152 
z"/>
<path fill="#FAFAFA" opacity="1.000000" stroke="none" 
	d="
M293.033569,171.088013 
	C293.395905,171.148422 293.274750,171.613190 293.132538,171.806702 
	C291.858337,171.568222 289.585815,173.010178 289.768799,170.738571 
	C289.858398,169.626266 291.624512,171.115921 293.033569,171.088013 
z"/>
<path fill="#FAFAFA" opacity="1.000000" stroke="none" 
	d="
M243.866470,190.086182 
	C244.128876,190.509247 244.054245,190.941040 243.982651,191.702164 
	C243.406204,192.711731 242.698944,193.088776 242.266022,192.031311 
	C241.835175,190.978867 242.431381,190.302383 243.866470,190.086182 
z"/>
<path fill="#454545" opacity="1.000000" stroke="none" 
	d="
M159.175705,353.349915 
	C159.566956,352.991394 159.928864,352.991699 160.562195,352.992432 
	C160.795395,353.899689 160.757156,354.806580 160.871307,356.144836 
	C160.880463,355.304504 158.976013,355.185822 159.175705,353.349915 
z"/>
<path fill="#363636" opacity="1.000000" stroke="none" 
	d="
M280.087738,214.751984 
	C278.395233,214.453339 277.836456,212.977554 277.601776,211.248108 
	C278.106201,210.885574 278.284912,210.777939 278.719299,210.850830 
	C278.974945,211.031387 279.000000,210.999252 278.982483,211.009903 
	C279.226318,211.251556 279.466400,211.502899 279.773438,212.020325 
	C279.956116,212.976624 280.050598,213.687119 280.087738,214.751984 
z"/>
<path fill="#FCFCFC" opacity="1.000000" stroke="none" 
	d="
M223.956421,271.689545 
	C223.523621,271.945831 223.051056,271.880676 222.226349,271.884583 
	C221.291580,271.480072 221.024185,270.813324 221.710022,270.385986 
	C222.769470,269.725830 223.539902,270.227295 223.956421,271.689545 
z"/>
<path fill="#E1E1E1" opacity="1.000000" stroke="none" 
	d="
M279.583160,220.816803 
	C279.297943,220.130692 279.262909,219.258957 279.177979,217.953247 
	C279.218628,217.229568 279.404785,217.028015 279.863953,216.794189 
	C281.584778,218.077698 280.197418,219.327545 279.583160,220.816803 
z"/>
<path fill="#F7F7F7" opacity="1.000000" stroke="none" 
	d="
M242.957123,225.612579 
	C242.938736,226.075226 242.905319,226.260941 242.943817,226.720398 
	C242.087479,226.858322 240.937622,226.813049 241.434723,225.416183 
	C241.696976,224.679260 242.369293,224.026398 242.957123,225.612579 
z"/>
<path fill="#FAFAFA" opacity="1.000000" stroke="none" 
	d="
M263.576660,183.625534 
	C263.922943,184.414673 264.089569,185.091110 263.314514,185.266068 
	C263.073303,185.320496 262.505768,184.787613 262.407227,184.434433 
	C262.210754,183.730347 262.573395,183.298798 263.576660,183.625534 
z"/>
<path fill="#2B2B2B" opacity="1.000000" stroke="none" 
	d="
M259.613037,216.463654 
	C259.682648,216.097412 259.967804,216.071442 260.680054,215.999924 
	C261.767853,216.444641 262.428528,216.934921 263.057465,217.736389 
	C261.309814,219.304489 260.842682,217.351059 259.613037,216.463654 
z"/>
<path fill="#FCFCFC" opacity="1.000000" stroke="none" 
	d="
M166.077576,288.767029 
	C166.169586,288.334076 166.340820,288.195862 166.842178,288.062592 
	C167.622162,288.314026 168.072052,288.560577 168.760574,288.903381 
	C168.975891,289.166748 168.952576,289.333801 168.897247,289.751862 
	C167.875366,289.939789 166.759003,290.240692 166.077576,288.767029 
z"/>
<path fill="#FCFCFC" opacity="1.000000" stroke="none" 
	d="
M274.265991,201.425812 
	C274.105499,201.009064 274.130005,200.806305 274.192810,200.299561 
	C275.163025,200.109970 276.392365,200.257355 276.295380,201.345703 
	C276.212860,202.271591 275.160919,201.980972 274.265991,201.425812 
z"/>
<path fill="#FCFCFC" opacity="1.000000" stroke="none" 
	d="
M215.987030,260.350586 
	C216.460800,260.003815 216.905640,260.052063 217.687225,260.087769 
	C217.907516,261.119781 217.419174,261.856781 215.999557,262.226532 
	C215.655945,262.345215 215.758057,262.220764 215.687225,262.258179 
	C215.730286,261.778961 215.844177,261.262268 215.987030,260.350586 
z"/>
<path fill="#FAFAFA" opacity="1.000000" stroke="none" 
	d="
M286.111938,170.138123 
	C285.960297,169.904236 286.019775,169.442947 286.084900,169.219696 
	C286.784088,169.088501 287.607849,169.147690 287.586975,169.935547 
	C287.562592,170.857574 286.910767,170.828430 286.111938,170.138123 
z"/>
<path fill="#FCFCFC" opacity="1.000000" stroke="none" 
	d="
M279.958801,201.482712 
	C279.811493,201.792740 279.619293,201.835678 279.133362,201.910370 
	C278.296204,201.527481 277.957764,200.955505 278.620728,200.502640 
	C279.267670,200.060760 279.696411,200.577530 279.958801,201.482712 
z"/>
<path fill="#3E3E3E" opacity="1.000000" stroke="none" 
	d="
M261.910034,208.602448 
	C262.417816,210.307541 261.276367,210.353546 260.235229,210.353760 
	C259.748230,208.512329 260.179291,207.722534 261.910034,208.602448 
z"/>
<path fill="#515151" opacity="1.000000" stroke="none" 
	d="
M170.751831,319.588928 
	C170.775848,321.499573 169.494263,321.474548 168.193726,321.365967 
	C168.263000,319.587769 169.345749,319.326141 170.751831,319.588928 
z"/>
<path fill="#121923" opacity="1.000000" stroke="none" 
	d="
M199.315399,399.136169 
	C197.575699,396.988892 200.195068,398.076477 200.832733,397.660034 
	C200.926773,398.806427 200.299591,398.947601 199.315399,399.136169 
z"/>
<path fill="#E1E1E1" opacity="1.000000" stroke="none" 
	d="
M279.123413,210.777740 
	C278.801239,211.000366 278.627533,210.969360 278.190613,210.965790 
	C277.927460,210.993225 278.001862,210.995468 278.002380,211.032684 
	C277.402802,210.410141 277.447937,209.712173 278.214539,208.805603 
	C278.804199,208.607361 279.059082,208.594818 279.624573,208.806061 
	C279.935150,209.029831 280.108063,209.438278 280.172485,209.650482 
	C279.915253,210.083160 279.593567,210.303635 279.123413,210.777740 
z"/>
<path fill="#515151" opacity="1.000000" stroke="none" 
	d="
M173.088074,318.702026 
	C173.666794,320.400635 172.473495,319.941589 171.402466,320.082092 
	C170.561707,318.341797 172.005661,318.802002 173.088074,318.702026 
z"/>
<path fill="#363636" opacity="1.000000" stroke="none" 
	d="
M243.726135,204.507812 
	C243.813507,204.436386 243.629761,204.726334 243.736465,204.860764 
	C243.734406,205.024506 243.626068,205.067734 243.516479,205.071228 
	C243.494888,205.071930 243.431671,204.907928 243.452911,204.840454 
	C243.483444,204.743484 243.573883,204.665390 243.726135,204.507812 
z"/>
<path fill="#F7F7F7" opacity="1.000000" stroke="none" 
	d="
M234.218292,217.180511 
	C234.892746,217.439499 235.175064,217.888031 235.263885,218.684875 
	C234.550232,218.836288 234.030045,218.639389 233.353790,218.207916 
	C233.407196,217.772278 233.616669,217.571182 234.218292,217.180511 
z"/>
<path fill="#121923" opacity="1.000000" stroke="none" 
	d="
M280.118896,208.925842 
	C279.935150,209.029831 279.462280,208.997665 279.251007,208.890350 
	C278.851227,208.669785 278.662750,208.556534 278.727661,208.232178 
	C278.981110,208.021057 279.121399,207.861389 279.190308,207.780472 
	C279.644775,207.789505 280.030334,207.879456 280.673645,208.119293 
	C280.766815,208.504623 280.557251,208.688828 280.118896,208.925842 
z"/>
<path fill="#121923" opacity="1.000000" stroke="none" 
	d="
M315.005920,195.014313 
	C314.893127,194.726791 314.780945,194.474136 314.668762,194.221481 
	C314.652130,194.481476 314.635498,194.741486 314.778534,195.031998 
	C314.938171,195.062515 315.006561,195.049149 315.005920,195.014313 
z"/>
<path fill="#354A66" opacity="1.000000" stroke="none" 
	d="
M180.269119,238.108368 
	C180.191574,237.708755 180.414658,237.401764 180.926483,237.156403 
	C181.000061,237.545670 180.784912,237.873322 180.269119,238.108368 
z"/>
<path fill="#3E3E3E" opacity="1.000000" stroke="none" 
	d="
M327.015381,243.987457 
	C327.030182,243.993378 327.076904,244.161880 327.076904,244.161880 
	C327.076904,244.161880 327.127930,243.941589 327.067108,243.969131 
	C327.006287,243.996674 327.000610,243.981522 327.015381,243.987457 
z"/>
<path fill="#515151" opacity="1.000000" stroke="none" 
	d="
M156.661255,331.921417 
	C156.949310,332.120514 156.922302,332.294098 156.978317,332.717651 
	C156.799866,332.942627 156.538361,332.917664 155.886993,332.832825 
	C155.780151,332.480621 156.063187,332.188232 156.661255,331.921417 
z"/>
<path fill="#E1E1E1" opacity="1.000000" stroke="none" 
	d="
M279.826111,211.991760 
	C279.604645,212.027298 279.347687,211.788437 279.027863,211.285065 
	C279.240204,211.252823 279.515442,211.485092 279.826111,211.991760 
z"/>
<path fill="#3E3E3E" opacity="1.000000" stroke="none" 
	d="
M260.501038,184.496552 
	C260.491547,184.520615 260.510498,184.472488 260.501038,184.496552 
z"/>
<path fill="#FAFAFA" opacity="1.000000" stroke="none" 
	d="
M265.570129,184.457840 
	C265.614532,184.524918 265.525696,184.390762 265.570129,184.457840 
z"/>
<path fill="#3E3E3E" opacity="1.000000" stroke="none" 
	d="
M261.723602,208.244019 
	C262.170929,207.960831 262.436249,207.936417 263.105927,207.923004 
	C263.711395,208.609497 263.473572,209.053223 262.382629,209.123444 
	C261.820618,208.819122 261.681091,208.660950 261.723602,208.244019 
z"/>
<path fill="#515151" opacity="1.000000" stroke="none" 
	d="
M240.494827,191.614578 
	C240.515976,191.567291 240.473679,191.661865 240.494827,191.614578 
z"/>
<path fill="#616162" opacity="1.000000" stroke="none" 
	d="
M188.387238,319.095123 
	C188.106689,318.914459 188.144485,318.728455 188.089264,318.273376 
	C188.164383,317.960907 188.332520,317.917511 188.758987,317.907471 
	C188.913391,318.323853 188.809494,318.706787 188.387238,319.095123 
z"/>
<path fill="#454545" opacity="1.000000" stroke="none" 
	d="
M264.091522,205.763489 
	C263.784821,205.920715 263.500427,205.780685 263.144958,205.332108 
	C263.196655,205.080475 263.368774,205.037109 263.792419,205.081512 
	C264.043915,205.169250 264.064484,205.566467 264.091522,205.763489 
z"/>
<path fill="#0D1118" opacity="1.000000" stroke="none" 
	d="
M144.817444,225.222580 
	C141.475586,222.579590 138.507431,219.575958 134.173767,218.240448 
	C131.984100,217.565643 130.505005,215.101456 130.149857,212.803986 
	C128.849289,204.390762 126.524872,195.904083 130.376221,187.533447 
	C138.679077,169.487778 149.818375,153.164658 161.181564,136.982239 
	C161.403885,136.665649 161.959442,136.583054 162.721786,136.217621 
	C162.699127,139.062592 160.874207,140.690170 159.622604,142.451828 
	C150.763962,154.920532 142.803345,167.940399 135.445663,181.337296 
	C135.138153,181.897202 135.092377,182.600861 134.969421,183.627426 
	C148.397980,171.132248 179.440079,178.141037 185.677017,196.311478 
	C186.106842,197.563690 186.706543,198.800446 186.868332,200.089432 
	C187.020889,201.304779 187.615067,202.894562 186.121902,203.692154 
	C184.880020,204.355545 184.043625,203.073120 183.027023,202.597565 
	C170.040771,196.522980 156.870575,193.882050 143.307098,200.801727 
	C140.323486,202.323883 137.159042,202.177307 134.019226,202.050507 
	C131.561279,201.951263 130.843536,202.979935 130.837387,205.278381 
	C130.828705,208.523926 131.330261,211.574890 133.108704,214.336716 
	C135.873413,218.630203 138.700119,219.082886 143.311310,215.807648 
	C143.881088,215.748657 144.107712,215.810547 144.670074,215.977661 
	C147.122635,216.317993 148.828934,215.149780 150.621552,214.365143 
	C156.943680,211.597855 163.456711,210.043335 169.326675,210.984543 
	C171.070709,210.924911 170.306274,210.029205 170.504776,210.665634 
	C170.563766,210.854706 170.426346,210.996140 170.121643,210.937820 
	C162.150986,209.412582 154.670486,210.922180 147.158966,214.566513 
	C146.552353,214.483383 146.317947,214.398758 145.889420,213.994720 
	C149.700882,208.226486 155.984589,207.758469 161.714203,207.441727 
	C167.041992,207.147202 172.646317,208.138657 177.279938,211.565323 
	C179.155457,212.952301 182.021240,213.934326 180.857819,217.075272 
	C179.247116,221.423706 179.702286,227.670898 172.772720,227.777756 
	C169.520630,227.827896 166.194290,227.113708 163.008408,226.318222 
	C159.526703,225.448837 158.356674,222.697342 158.916840,219.359711 
	C159.671524,214.863007 157.749527,214.551392 154.300003,216.063095 
	C151.721741,217.192993 149.170181,218.507751 146.468414,219.201553 
	C142.836227,220.134293 142.752274,221.690598 145.083817,224.487915 
	C145.197723,224.810043 144.938873,225.080246 144.817444,225.222580 
z"/>
<path fill="#FFFFFF" opacity="1.000000" stroke="none" 
	d="
M173.909912,245.779388 
	C173.888992,246.134018 173.731033,246.300400 173.279968,246.286469 
	C173.076065,245.670761 173.040710,245.045273 173.909912,245.779388 
z"/>
<path fill="#0D1118" opacity="1.000000" stroke="none" 
	d="
M143.795990,215.810394 
	C143.813797,215.401001 144.012009,215.145370 144.457581,214.793488 
	C144.862976,214.748703 145.059937,214.830307 145.252808,215.231689 
	C145.115967,215.718307 144.983215,215.885132 144.536942,216.114990 
	C144.223419,216.178055 143.937531,215.934021 143.795990,215.810394 
z"/>
<path fill="#0D1118" opacity="1.000000" stroke="none" 
	d="
M144.798874,214.799576 
	C144.829407,214.385315 145.040741,214.145874 145.497681,213.812042 
	C145.695282,213.675293 145.951813,213.958252 146.078964,214.100723 
	C146.202866,214.625961 146.039810,214.927307 145.468048,215.178375 
	C145.196442,215.197937 144.931717,214.932053 144.798874,214.799576 
z"/>
<path fill="#121923" opacity="1.000000" stroke="none" 
	d="
M196.545242,348.172119 
	C193.787521,348.577240 191.333588,348.854156 188.422180,349.102386 
	C189.742264,344.798401 194.196152,346.579437 197.516617,344.897400 
	C206.901138,341.898224 214.929016,336.877777 223.892120,332.776428 
	C222.402679,331.069031 220.276703,331.457458 218.872849,329.940125 
	C218.749390,329.366180 218.802460,329.118683 219.150955,328.622711 
	C224.786636,326.214447 229.986679,329.349609 235.271805,328.992096 
	C233.359711,328.879089 231.090851,329.697021 230.956223,326.360046 
	C231.758423,326.095703 232.271317,326.010376 232.754272,326.095306 
	C235.270645,326.537903 239.082535,326.250854 238.873199,329.590210 
	C238.681549,332.647430 235.008682,332.108032 232.626236,331.914673 
	C230.515732,331.743439 229.575760,333.229980 228.077469,333.992920 
	C217.901627,339.174164 208.127945,345.307220 196.545242,348.172119 
z"/>
<path fill="#4D6A93" opacity="1.000000" stroke="none" 
	d="
M230.840332,326.074280 
	C231.327698,329.493866 235.326935,326.854889 236.008804,329.769775 
	C230.599411,330.886658 225.296295,328.438782 219.443375,328.569275 
	C217.768250,329.145111 216.552887,329.161041 215.104156,328.169617 
	C216.115768,326.948486 217.371628,326.021210 218.959991,325.011841 
	C221.930191,325.288849 224.567886,325.647949 227.614044,326.014893 
	C228.022537,326.022766 227.985947,325.999359 227.974396,325.981079 
	C228.073212,326.097717 228.183563,326.232666 228.520752,326.237549 
	C229.305511,326.087036 229.863434,326.066589 230.840332,326.074280 
z"/>
<path fill="#2B2B2B" opacity="1.000000" stroke="none" 
	d="
M228.548492,326.087128 
	C228.747604,326.107513 228.467590,326.434448 228.467590,326.434448 
	C228.467590,326.434448 228.100708,326.256104 228.031784,326.109436 
	C227.962860,325.962769 228.349396,326.066742 228.548492,326.087128 
z"/>
<path fill="#F9F9F9" opacity="1.000000" stroke="none" 
	d="
M199.013092,345.547913 
	C195.180786,346.579651 191.684906,347.445129 188.076874,348.692139 
	C187.004440,350.108002 185.865189,349.931335 184.285614,349.383545 
	C182.090790,347.095642 178.979752,348.079346 176.776733,346.128113 
	C172.175629,344.458801 173.203201,340.273956 172.140076,336.767273 
	C170.601593,332.804596 171.627213,330.631012 175.469055,329.513428 
	C180.340286,328.096405 185.201263,328.514099 190.562531,328.979675 
	C194.094406,327.953735 197.145935,328.746490 200.619019,328.995300 
	C203.771408,329.032074 206.508102,328.949524 209.631836,329.126465 
	C212.580399,330.880890 210.665497,332.406189 209.574722,333.475952 
	C205.818619,337.159821 202.884171,341.524872 199.013092,345.547913 
z"/>
<path fill="#515151" opacity="1.000000" stroke="none" 
	d="
M176.729553,346.248596 
	C179.254959,346.338959 182.312729,345.911133 183.998047,349.015320 
	C181.363388,348.851349 178.587738,349.174622 176.729553,346.248596 
z"/>
<path fill="#506E98" opacity="1.000000" stroke="none" 
	d="
M198.856262,394.290100 
	C200.221130,393.718903 200.819351,394.421478 200.858658,395.976746 
	C199.750107,396.103882 199.211395,395.443451 198.856262,394.290100 
z"/>
<path fill="#454545" opacity="1.000000" stroke="none" 
	d="
M157.978134,341.057495 
	C157.961716,341.038330 158.102539,341.194580 158.102539,341.194580 
	C158.102539,341.194580 158.061020,340.949280 158.037079,341.036499 
	C158.013138,341.123718 157.994553,341.076630 157.978134,341.057495 
z"/>
<path fill="#F9F9F9" opacity="1.000000" stroke="none" 
	d="
M171.090744,334.972900 
	C171.463165,334.827728 171.970779,334.999207 172.412811,335.608185 
	C171.973465,335.793671 171.599701,335.541626 171.090744,334.972900 
z"/>
<path fill="#616162" opacity="1.000000" stroke="none" 
	d="
M211.182251,330.255127 
	C207.802750,330.046692 204.755051,329.989899 201.277557,329.759033 
	C200.768082,329.349579 200.688354,329.114166 200.760315,328.538208 
	C204.316162,328.123688 207.720322,328.049683 211.582733,328.045227 
	C212.368164,328.497437 212.515289,328.940063 212.330688,329.773926 
	C211.957001,330.205841 211.735519,330.306274 211.182251,330.255127 
z"/>
<path fill="#2B2B2B" opacity="1.000000" stroke="none" 
	d="
M212.475861,330.161560 
	C212.097870,329.428009 212.038559,329.053894 212.010117,328.397278 
	C212.745697,328.057159 213.450378,327.999603 214.507507,327.908936 
	C216.039215,327.976135 217.218521,328.076508 218.695343,328.347961 
	C218.996811,328.747253 219.000717,328.975403 219.004883,329.545837 
	C217.103775,331.755981 214.988892,331.528412 212.475861,330.161560 
z"/>
<path fill="#121923" opacity="1.000000" stroke="none" 
	d="
M200.469269,328.137054 
	C200.851547,328.508606 200.786026,328.818481 200.781616,329.356140 
	C197.851913,329.415497 194.856049,329.246063 191.443665,328.992615 
	C191.046112,328.696503 191.065079,328.484406 191.088181,327.952942 
	C194.070374,327.781189 197.048462,327.928802 200.469269,328.137054 
z"/>
<path fill="#4D6A93" opacity="1.000000" stroke="none" 
	d="
M288.652618,322.634644 
	C289.379608,321.912750 289.793793,321.359314 290.334930,320.993805 
	C291.995636,319.872253 293.506897,317.014069 295.672424,318.757050 
	C297.959167,320.597565 296.627045,323.439911 295.487030,325.648285 
	C293.336700,329.813812 288.463898,331.362579 283.499939,329.609467 
	C284.503326,326.898376 286.520386,324.943207 288.652618,322.634644 
z"/>
<path fill="#4D6A93" opacity="1.000000" stroke="none" 
	d="
M204.487106,391.511261 
	C201.939957,394.683624 201.045197,392.026398 199.922119,390.609558 
	C198.893814,389.312256 200.043701,388.836304 200.984207,388.659973 
	C202.975189,388.286743 205.260788,387.726990 204.487106,391.511261 
z"/>
<path fill="#363636" opacity="1.000000" stroke="none" 
	d="
M278.581512,207.997345 
	C278.981110,208.021057 279.049469,208.399002 279.044617,208.591003 
	C278.223633,209.008850 278.033997,209.632492 278.016235,210.721832 
	C276.175598,212.443527 275.587708,210.068512 274.110107,209.529633 
	C274.955200,207.460556 276.690186,208.132889 278.581512,207.997345 
z"/>
<path fill="#334864" opacity="1.000000" stroke="none" 
	d="
M190.882568,221.638229 
	C189.260269,222.779480 187.909012,223.669525 185.645401,225.160507 
	C187.249924,220.116989 188.873077,216.207672 191.336227,212.135544 
	C193.543823,215.675812 194.038910,218.589127 190.882568,221.638229 
z"/>
<path fill="#FFFFFF" opacity="1.000000" stroke="none" 
	d="
M307.349640,188.691132 
	C307.770752,189.098236 308.412231,189.860977 306.900024,189.451019 
	C306.911407,189.094254 307.033600,188.975784 307.349640,188.691132 
z"/>
<path fill="#334864" opacity="1.000000" stroke="none" 
	d="
M159.020416,194.995667 
	C153.058624,194.596039 148.096313,196.496140 143.161026,198.538712 
	C141.626587,199.173782 140.054535,199.717651 138.502701,200.311081 
	C136.193863,201.193970 133.749985,201.425980 131.863220,199.763580 
	C129.945282,198.073700 131.698685,195.904724 132.188797,194.186829 
	C134.747070,185.219635 140.959610,179.792328 150.138168,179.358536 
	C160.998749,178.845230 171.390930,181.068085 179.239731,189.646240 
	C182.035309,192.701630 184.166962,196.159286 184.932465,201.305984 
	C176.492493,196.897034 168.168152,195.134613 159.020416,194.995667 
z"/>
<path fill="#334864" opacity="1.000000" stroke="none" 
	d="
M178.076019,219.817184 
	C177.353241,222.873917 176.465988,225.690948 173.242950,225.784073 
	C168.998016,225.906723 164.500519,226.170868 161.156662,222.689850 
	C158.949249,220.391922 160.601669,218.335266 162.017654,216.505264 
	C165.022888,212.621414 169.278671,213.745346 173.094986,214.350281 
	C175.579834,214.744156 178.461838,215.739014 178.076019,219.817184 
z"/>
<path fill="#334864" opacity="1.000000" stroke="none" 
	d="
M145.067352,215.392380 
	C145.482849,215.058838 145.729721,214.868484 146.071594,214.435028 
	C154.339005,209.426193 162.744690,207.053085 171.953705,211.525406 
	C162.901031,211.177322 154.533401,213.519943 146.571991,217.575775 
	C145.703262,218.018326 144.631805,218.243454 144.210388,216.512589 
	C144.501114,216.028656 144.739395,215.831573 145.067352,215.392380 
z"/>
<path fill="#334864" opacity="1.000000" stroke="none" 
	d="
M160.528870,214.614288 
	C160.427643,214.679657 160.378052,214.425812 160.378052,214.425812 
	C160.378052,214.425812 160.630081,214.548920 160.528870,214.614288 
z"/>
<path fill="#354A66" opacity="1.000000" stroke="none" 
	d="
M135.005737,184.007446 
	C134.878616,184.002411 134.860199,185.060974 134.796753,184.020203 
	C134.976471,183.979767 134.997253,183.997574 135.005737,184.007446 
z"/>
<path fill="#506E98" opacity="1.000000" stroke="none" 
	d="
M211.831909,329.883484 
	C214.153885,329.856445 216.150558,329.910767 218.576202,329.926636 
	C221.596603,330.339722 224.188065,330.791351 228.336151,331.514252 
	C218.144684,337.241211 209.014603,341.928467 199.049118,345.720337 
	C201.349396,339.646820 206.077179,335.230011 210.779007,330.419250 
	C211.069168,330.057281 211.287888,330.011078 211.831909,329.883484 
z"/>
</svg>