<?xml version="1.0" standalone="no"?>
<!DOCTYPE svg PUBLIC "-//W3C//DTD SVG 20010904//EN"
 "http://www.w3.org/TR/2001/REC-SVG-20010904/DTD/svg10.dtd">
<svg version="1.0" xmlns="http://www.w3.org/2000/svg"
 width="1600.000000pt" height="1600.000000pt" viewBox="0 0 1600.000000 1600.000000"
 preserveAspectRatio="xMidYMid meet">

<g transform="translate(0.000000,1600.000000) scale(0.100000,-0.100000)"
fill="#000000" stroke="none">
<path d="M3770 8000 l0 -1550 30 0 30 0 0 1550 0 1550 -30 0 -30 0 0 -1550z"/>
<path d="M1544 9520 c-174 -35 -329 -185 -616 -600 -257 -371 -352 -684 -263
-860 35 -69 104 -136 173 -168 52 -24 68 -26 177 -26 98 0 134 4 195 23 123
38 255 108 362 191 27 21 26 19 -17 -79 -24 -56 -59 -122 -77 -147 -27 -38
-33 -56 -33 -96 0 -46 3 -53 37 -83 57 -49 245 -98 288 -75 18 10 21 17 15 50
-6 34 -3 41 19 55 20 13 37 16 73 11 106 -15 146 -38 136 -77 -6 -20 -5 -21
26 -5 37 20 71 70 71 106 -1 39 -38 112 -71 140 l-30 25 30 55 c56 103 85 206
86 300 0 103 11 110 85 55 73 -54 138 -63 260 -36 204 44 240 61 240 111 0 58
-78 95 -200 95 -101 -1 -144 -14 -228 -67 -34 -23 -65 -38 -69 -35 -10 11 18
67 44 87 13 10 52 28 86 39 138 44 242 37 367 -28 97 -50 121 -55 167 -36 48
19 66 46 73 111 l5 50 124 -65 c188 -100 249 -162 238 -244 -11 -79 -92 -139
-336 -247 -158 -70 -202 -98 -248 -156 -55 -71 -126 -237 -163 -381 -10 -38
-14 -43 -48 -49 -110 -19 -248 -63 -369 -119 -78 -36 -83 -37 -133 -26 -29 6
-84 25 -124 43 -66 29 -74 30 -111 18 -22 -7 -81 -15 -131 -19 -109 -8 -149
-28 -141 -69 3 -15 8 -37 12 -49 7 -22 5 -23 -53 -23 -34 0 -63 -4 -67 -10 -3
-5 3 -44 14 -87 11 -43 29 -134 41 -203 39 -228 62 -301 112 -347 56 -52 179
-68 255 -33 l43 19 57 -29 c95 -48 142 -53 413 -47 233 6 363 20 520 56 398
91 638 284 682 549 10 57 10 82 -1 120 -28 105 -116 201 -241 261 l-75 36
-175 3 c-115 2 -226 -2 -320 -12 -79 -9 -145 -14 -148 -11 -7 7 56 200 89 274
38 84 100 165 149 196 22 14 102 53 178 86 289 128 373 211 324 322 -29 64
-94 116 -240 192 -107 56 -134 74 -139 95 -34 143 -160 214 -403 227 -151 7
-268 -11 -381 -61 -15 -6 -17 5 -21 91 -5 114 -29 182 -103 293 -57 85 -208
239 -271 276 -25 15 -71 33 -103 40 -62 15 -60 15 -117 4z m1158 -679 c114
-30 181 -78 213 -153 20 -50 20 -51 -22 -32 -131 58 -168 67 -258 67 -84 0
-102 -4 -271 -61 -145 -50 -194 -62 -243 -62 l-61 0 23 48 c14 26 30 65 37 87
17 55 24 61 87 85 140 52 341 61 495 21z m103 -164 c33 -13 77 -33 99 -43 l38
-19 -4 -54 c-4 -45 -10 -59 -37 -83 -45 -40 -79 -36 -189 19 -86 43 -101 47
-180 51 -181 8 -332 -62 -332 -154 0 -41 9 -42 63 -5 66 45 119 69 175 79 l51
9 -30 -27 c-16 -16 -29 -34 -29 -42 0 -21 38 -54 88 -76 l43 -19 -65 -17
c-129 -32 -213 -19 -305 49 -40 29 -41 29 -67 11 -16 -12 -19 -25 -16 -89 3
-86 -29 -203 -81 -299 l-31 -57 -58 6 c-49 5 -59 3 -64 -12 -18 -47 49 -71 98
-35 l29 21 28 -20 c56 -40 78 -146 40 -195 -25 -31 -35 -33 -42 -6 -12 45
-182 79 -232 46 -23 -15 -26 -23 -23 -59 3 -41 2 -42 -32 -45 -42 -4 -161 23
-212 49 -79 40 -91 109 -34 188 19 26 44 69 54 96 49 122 92 204 119 224 63
49 269 261 326 336 57 76 62 80 96 77 51 -4 159 21 276 63 162 59 191 65 290
61 65 -3 106 -11 150 -29z m-212 -234 c63 -32 59 -113 -5 -113 -18 0 -51 9
-73 19 -75 34 -84 71 -25 102 35 19 52 18 103 -8z m61 -2 c44 -25 53 -44 33
-75 -26 -39 -42 -33 -42 16 0 37 -4 45 -35 66 -29 20 -31 23 -10 17 14 -4 38
-15 54 -24z m-676 -547 c2 -1 -8 -10 -23 -20 -21 -13 -31 -15 -50 -6 -47 22
-21 44 40 34 17 -3 32 -6 33 -8z m-80 -547 c26 -13 68 -30 95 -37 26 -7 47
-16 47 -20 0 -3 -11 -13 -25 -20 -19 -10 -64 -12 -205 -6 -149 5 -186 4 -216
-9 -48 -20 -49 -19 -62 11 -25 54 25 83 148 85 36 0 74 4 85 9 36 15 85 10
133 -13z m-40 -103 l114 -7 -30 -24 c-17 -13 -48 -47 -68 -76 -47 -64 -47 -64
-106 -72 -61 -9 -126 2 -145 25 -17 19 -64 132 -58 138 16 16 88 32 130 27 28
-2 101 -8 163 -11z m-280 -102 c31 -82 56 -95 164 -90 67 3 77 1 72 -12 -36
-82 -46 -132 -47 -220 0 -104 16 -157 67 -217 l27 -32 -33 -18 c-48 -25 -150
-23 -205 5 -74 39 -95 82 -133 277 -10 55 -29 150 -41 210 -12 61 -24 123 -26
138 l-5 28 68 -3 68 -3 24 -63z"/>
<path d="M7785 9391 c-132 -22 -216 -56 -563 -229 -271 -135 -435 -203 -539
-222 -111 -20 -205 39 -308 197 -102 154 -166 209 -280 239 -197 53 -421 -66
-521 -276 -56 -117 -57 -131 -61 -832 l-5 -648 81 0 80 0 3 423 c3 410 4 424
25 477 34 82 74 125 156 164 91 44 175 60 279 54 183 -10 291 -110 318 -295 5
-37 10 -238 10 -445 l0 -378 75 0 75 0 0 423 c0 447 -3 486 -49 575 -65 126
-230 203 -441 205 -192 1 -323 -59 -428 -198 l-22 -30 4 235 c6 316 30 423
107 463 29 16 53 18 159 14 202 -6 263 -41 360 -207 60 -102 111 -155 187
-191 179 -85 378 -35 924 235 275 136 392 180 521 197 99 14 214 7 257 -15 17
-9 43 -35 58 -57 57 -86 56 -78 61 -896 l3 -753 75 0 74 0 0 400 c0 421 5 477
45 540 83 129 266 207 431 183 138 -20 232 -84 282 -192 l26 -56 6 -440 c7
-475 6 -471 66 -585 98 -187 309 -306 580 -326 l91 -7 27 79 c14 44 26 82 26
86 0 4 -12 3 -27 -3 -122 -46 -328 -63 -414 -34 -91 31 -154 111 -180 230 -7
30 -14 244 -17 545 l-7 495 -27 55 c-53 108 -162 189 -298 221 -30 7 -104 12
-165 12 -117 0 -199 -20 -275 -66 -49 -30 -129 -106 -148 -142 -16 -29 -17
-20 -23 230 -6 291 -13 328 -74 408 -74 97 -186 136 -405 142 -80 2 -167 0
-195 -4z"/>
<path d="M11394 9366 c-88 -20 -152 -56 -211 -118 -57 -61 -89 -119 -124 -223
l-24 -70 -3 -667 -3 -668 78 0 78 0 -3 369 c-4 395 3 483 40 557 59 120 210
194 392 194 176 0 302 -87 341 -236 12 -47 15 -135 15 -472 l0 -413 78 3 77 3
0 430 c0 381 -2 436 -17 486 -57 182 -226 282 -478 281 -118 0 -195 -17 -275
-63 -49 -27 -116 -90 -148 -138 -15 -23 -16 -23 -23 25 -10 70 3 364 21 469
30 172 64 200 240 200 166 0 187 -10 337 -158 128 -127 192 -172 306 -215 56
-21 84 -26 177 -26 124 -1 173 11 495 114 315 100 290 95 450 95 257 0 334
-43 389 -217 36 -114 41 -204 41 -754 l0 -534 80 0 80 0 0 408 c0 484 4 510
97 613 88 98 199 143 333 137 145 -7 246 -71 307 -196 l28 -57 6 -480 c5 -423
8 -486 23 -535 54 -166 153 -279 308 -354 114 -55 191 -75 316 -83 l97 -6 27
82 c14 44 25 81 23 81 -3 0 -51 -12 -107 -27 -127 -32 -280 -37 -341 -9 -55
24 -112 80 -137 134 -44 92 -49 166 -50 659 0 495 -3 529 -50 623 -108 213
-424 301 -655 183 -69 -35 -131 -85 -176 -140 l-34 -43 -11 90 c-7 50 -24 125
-39 166 -49 134 -171 239 -350 300 -74 26 -92 28 -250 28 -194 1 -196 1 -569
-121 -285 -92 -382 -95 -554 -17 -94 43 -137 78 -222 179 -92 110 -143 136
-273 141 -55 2 -116 -2 -153 -10z"/>
<path d="M4200 8496 l0 -876 80 0 80 0 0 363 0 364 183 6 c349 12 559 76 680
207 67 72 94 130 108 227 17 119 -5 241 -56 323 -63 99 -202 185 -375 230 -77
21 -115 23 -392 27 l-308 5 0 -876z m405 844 c276 -23 468 -123 551 -288 27
-54 29 -63 29 -182 -1 -157 -21 -216 -102 -301 -120 -126 -319 -189 -600 -189
l-123 0 0 485 0 485 68 0 c37 0 117 -5 177 -10z"/>
<path d="M7280 8830 c-126 -34 -215 -84 -301 -169 -119 -119 -171 -252 -171
-431 0 -164 59 -306 177 -426 79 -80 145 -120 260 -160 74 -26 92 -28 235 -28
179 0 238 12 369 76 92 45 209 144 192 161 -7 7 -28 -7 -65 -40 -167 -153
-469 -196 -683 -98 -183 84 -292 248 -327 493 l-6 42 571 0 572 0 -6 88 c-18
247 -142 408 -374 483 -100 32 -337 37 -443 9z m361 -34 c190 -67 290 -215
293 -435 l1 -76 -482 -3 -483 -2 0 38 c0 109 65 255 156 351 104 111 194 149
354 150 75 0 109 -4 161 -23z"/>
<path d="M12746 8835 c-89 -17 -184 -63 -222 -107 -41 -50 -34 -58 56 -58 l80
0 14 33 c7 18 28 45 46 60 56 48 96 59 195 55 194 -7 261 -89 267 -328 l3 -94
-102 -27 c-246 -64 -465 -149 -570 -219 -68 -46 -141 -119 -164 -162 -46 -90
-10 -226 79 -293 72 -56 155 -77 297 -77 104 -1 131 3 200 26 44 15 118 47
164 72 46 25 87 42 91 37 4 -4 19 -39 34 -77 66 -168 176 -272 351 -332 73
-25 92 -28 215 -27 108 0 153 5 225 24 l90 24 3 74 c2 41 1 80 -2 88 -4 10
-25 1 -78 -35 -144 -98 -253 -138 -348 -129 -70 6 -107 24 -164 82 -62 63
-110 168 -217 475 -51 146 -96 269 -100 274 -4 4 -33 -2 -66 -13 -32 -12 -63
-24 -70 -26 -8 -3 -2 -29 19 -87 74 -204 90 -257 85 -270 -7 -20 -109 -72
-207 -104 -73 -25 -100 -29 -190 -28 -145 1 -201 29 -251 125 -31 61 -32 167
-2 224 41 77 148 161 278 217 138 60 403 138 515 150 25 3 25 4 24 93 -2 192
-73 306 -218 351 -73 23 -262 27 -360 9z"/>
<path d="M10255 8836 c-5 -2 -44 -12 -85 -21 -227 -52 -426 -212 -508 -408
-23 -56 -25 -75 -25 -192 0 -105 3 -141 20 -187 83 -235 298 -389 580 -416
105 -11 250 0 332 24 110 31 264 125 242 147 -6 6 -20 1 -42 -17 -72 -61 -215
-112 -344 -122 -158 -13 -343 55 -454 167 -70 69 -104 123 -139 218 -33 88
-41 264 -18 363 64 272 289 437 566 413 124 -10 229 -54 266 -110 15 -23 22
-25 102 -25 l85 0 -24 26 c-42 46 -104 83 -185 110 -68 23 -99 28 -219 30 -77
2 -144 2 -150 0z"/>
</g>
</svg>
