<?xml version="1.0" standalone="no"?>
<!DOCTYPE svg PUBLIC "-//W3C//DTD SVG 20010904//EN"
 "http://www.w3.org/TR/2001/REC-SVG-20010904/DTD/svg10.dtd">
<svg version="1.0" xmlns="http://www.w3.org/2000/svg"
 width="1600.000000pt" height="1600.000000pt" viewBox="0 0 1600.000000 1600.000000"
 preserveAspectRatio="xMidYMid meet">

<g transform="translate(0.000000,1600.000000) scale(0.100000,-0.100000)"
fill="#000000" stroke="none">
<path d="M3770 8000 l0 -1550 30 0 30 0 0 1550 0 1550 -30 0 -30 0 0 -1550z"/>
<path d="M1544 9520 c-174 -35 -329 -185 -616 -600 -257 -371 -352 -684 -263
-860 35 -69 104 -136 173 -168 52 -24 68 -26 177 -26 98 0 134 4 195 23 123
38 255 108 362 191 27 21 26 19 -17 -79 -24 -56 -59 -122 -77 -147 -27 -38
-33 -56 -33 -96 0 -46 3 -53 37 -83 57 -49 245 -98 288 -75 18 10 21 17 15 50
-6 34 -3 41 19 55 20 13 37 16 73 11 106 -15 146 -38 136 -77 -6 -20 -5 -21
26 -5 37 20 71 70 71 106 -1 39 -38 112 -71 140 l-30 25 30 55 c56 103 85 206
86 300 0 103 11 110 85 55 73 -54 138 -63 260 -36 204 44 240 61 240 111 0 58
-78 95 -200 95 -101 -1 -144 -14 -228 -67 -34 -23 -65 -38 -69 -35 -10 11 18
67 44 87 13 10 52 28 86 39 138 44 242 37 367 -28 97 -50 121 -55 167 -36 48
19 66 46 73 111 l5 50 124 -65 c188 -100 249 -162 238 -244 -11 -79 -92 -139
-336 -247 -158 -70 -202 -98 -248 -156 -55 -71 -126 -237 -163 -381 -10 -38
-14 -43 -48 -49 -110 -19 -248 -63 -369 -119 -78 -36 -83 -37 -133 -26 -29 6
-84 25 -124 43 -66 29 -74 30 -111 18 -22 -7 -81 -15 -131 -19 -109 -8 -149
-28 -141 -69 3 -15 8 -37 12 -49 7 -22 5 -23 -53 -23 -34 0 -63 -4 -67 -10 -3
-5 3 -44 14 -87 11 -43 29 -134 41 -203 39 -228 62 -301 112 -347 56 -52 179
-68 255 -33 l43 19 57 -29 c95 -48 142 -53 413 -47 233 6 363 20 520 56 398
91 638 284 682 549 10 57 10 82 -1 120 -28 105 -116 201 -241 261 l-75 36
-175 3 c-115 2 -226 -2 -320 -12 -79 -9 -145 -14 -148 -11 -7 7 56 200 89 274
38 84 100 165 149 196 22 14 102 53 178 86 289 128 373 211 324 322 -29 64
-94 116 -240 192 -107 56 -134 74 -139 95 -34 143 -160 214 -403 227 -151 7
-268 -11 -381 -61 -15 -6 -17 5 -21 91 -5 114 -29 182 -103 293 -57 85 -208
239 -271 276 -25 15 -71 33 -103 40 -62 15 -60 15 -117 4z m1158 -679 c114
-30 181 -78 213 -153 20 -50 20 -51 -22 -32 -131 58 -168 67 -258 67 -84 0
-102 -4 -271 -61 -145 -50 -194 -62 -243 -62 l-61 0 23 48 c14 26 30 65 37 87
17 55 24 61 87 85 140 52 341 61 495 21z m103 -164 c33 -13 77 -33 99 -43 l38
-19 -4 -54 c-4 -45 -10 -59 -37 -83 -45 -40 -79 -36 -189 19 -86 43 -101 47
-180 51 -181 8 -332 -62 -332 -154 0 -41 9 -42 63 -5 66 45 119 69 175 79 l51
9 -30 -27 c-16 -16 -29 -34 -29 -42 0 -21 38 -54 88 -76 l43 -19 -65 -17
c-129 -32 -213 -19 -305 49 -40 29 -41 29 -67 11 -16 -12 -19 -25 -16 -89 3
-86 -29 -203 -81 -299 l-31 -57 -58 6 c-49 5 -59 3 -64 -12 -18 -47 49 -71 98
-35 l29 21 28 -20 c56 -40 78 -146 40 -195 -25 -31 -35 -33 -42 -6 -12 45
-182 79 -232 46 -23 -15 -26 -23 -23 -59 3 -41 2 -42 -32 -45 -42 -4 -161 23
-212 49 -79 40 -91 109 -34 188 19 26 44 69 54 96 49 122 92 204 119 224 63
49 269 261 326 336 57 76 62 80 96 77 51 -4 159 21 276 63 162 59 191 65 290
61 65 -3 106 -11 150 -29z m-212 -234 c63 -32 59 -113 -5 -113 -18 0 -51 9
-73 19 -75 34 -84 71 -25 102 35 19 52 18 103 -8z m61 -2 c44 -25 53 -44 33
-75 -26 -39 -42 -33 -42 16 0 37 -4 45 -35 66 -29 20 -31 23 -10 17 14 -4 38
-15 54 -24z m-676 -547 c2 -1 -8 -10 -23 -20 -21 -13 -31 -15 -50 -6 -47 22
-21 44 40 34 17 -3 32 -6 33 -8z m-80 -547 c26 -13 68 -30 95 -37 26 -7 47
-16 47 -20 0 -3 -11 -13 -25 -20 -19 -10 -64 -12 -205 -6 -149 5 -186 4 -216
-9 -48 -20 -49 -19 -62 11 -25 54 25 83 148 85 36 0 74 4 85 9 36 15 85 10
133 -13z m-40 -103 l114 -7 -30 -24 c-17 -13 -48 -47 -68 -76 -47 -64 -47 -64
-106 -72 -61 -9 -126 2 -145 25 -17 19 -64 132 -58 138 16 16 88 32 130 27 28
-2 101 -8 163 -11z m-280 -102 c31 -82 56 -95 164 -90 67 3 77 1 72 -12 -36
-82 -46 -132 -47 -220 0 -104 16 -157 67 -217 l27 -32 -33 -18 c-48 -25 -150
-23 -205 5 -74 39 -95 82 -133 277 -10 55 -29 150 -41 210 -12 61 -24 123 -26
138 l-5 28 68 -3 68 -3 24 -63z"/>
<path d="M7785 9391 c-134 -22 -206 -51 -565 -230 -269 -134 -433 -202 -537
-221 -113 -21 -199 35 -313 204 -83 123 -137 177 -213 211 -208 95 -472 -20
-583 -255 -56 -118 -57 -131 -61 -832 l-5 -648 81 0 80 0 3 423 c3 410 4 424
25 477 34 82 74 125 156 164 127 61 308 74 409 29 65 -29 132 -94 157 -152 34
-81 41 -167 41 -563 l0 -378 75 0 75 0 0 423 c0 447 -3 486 -49 575 -45 88
-148 158 -278 188 -84 20 -240 22 -313 4 -106 -25 -217 -95 -260 -165 -12 -19
-26 -35 -32 -35 -17 0 -3 440 17 525 36 158 65 178 240 172 205 -8 266 -42
360 -198 67 -114 115 -163 194 -201 84 -40 192 -49 291 -23 145 36 359 124
615 251 306 151 410 190 557 206 187 21 260 -3 311 -102 41 -82 46 -180 47
-942 l0 -678 75 0 74 0 3 428 c3 421 3 428 26 478 66 145 267 243 448 217 138
-20 232 -84 282 -192 l26 -56 6 -440 c5 -426 6 -442 28 -504 79 -221 280 -366
553 -401 46 -5 100 -10 120 -10 l37 0 26 78 c14 42 26 80 26 84 0 4 -21 0 -47
-8 -148 -45 -310 -57 -394 -29 -91 31 -154 112 -180 230 -6 30 -13 247 -17
545 l-7 495 -27 55 c-53 108 -162 189 -298 221 -30 7 -107 12 -170 12 -99 0
-124 -4 -183 -27 -38 -14 -83 -35 -100 -47 -49 -34 -117 -101 -135 -134 -16
-29 -17 -20 -23 230 -6 291 -13 328 -74 408 -74 97 -187 136 -405 142 -80 2
-168 0 -195 -4z"/>
<path d="M11394 9366 c-88 -20 -152 -56 -211 -118 -57 -61 -89 -119 -124 -223
l-24 -70 -3 -667 -3 -668 78 0 78 0 0 423 0 422 29 63 c66 143 228 222 430
210 142 -9 233 -65 288 -176 l33 -67 3 -437 3 -438 80 0 79 0 0 393 c0 215 -5
424 -10 462 -33 228 -204 348 -495 348 -113 0 -192 -19 -270 -64 -65 -37 -84
-54 -128 -112 l-36 -47 -7 47 c-10 69 3 363 21 466 30 172 66 202 245 202 161
0 183 -11 332 -158 128 -127 192 -172 306 -215 56 -21 84 -26 177 -26 124 -1
171 10 495 113 316 101 291 96 450 96 257 0 334 -43 389 -217 36 -114 41 -204
41 -754 l0 -534 80 0 80 0 0 408 c0 438 3 470 53 555 37 62 108 124 185 160
62 30 75 32 172 32 93 0 112 -3 162 -27 69 -32 129 -92 165 -166 l28 -57 6
-480 c6 -524 5 -519 69 -645 94 -186 315 -311 575 -327 l100 -6 27 82 c14 44
23 81 20 81 -4 0 -40 -9 -80 -20 -343 -91 -501 -12 -542 272 -5 34 -10 270
-10 523 0 493 -2 511 -53 610 -96 188 -377 284 -596 203 -81 -30 -180 -99
-226 -158 l-40 -51 -11 91 c-7 50 -24 125 -39 166 -49 134 -171 239 -350 300
-75 26 -91 28 -250 28 -194 1 -197 0 -569 -121 -224 -72 -300 -84 -412 -63
-145 27 -249 90 -358 219 -99 117 -147 142 -279 147 -55 2 -116 -2 -153 -10z"/>
<path d="M4200 8496 l0 -876 80 0 80 0 0 363 0 364 183 6 c255 9 415 40 551
109 78 39 166 124 199 192 65 133 57 336 -18 456 -62 99 -202 184 -375 231
-77 20 -113 22 -392 27 l-308 4 0 -876z m593 816 c172 -47 302 -140 363 -260
27 -54 29 -63 29 -182 -1 -158 -21 -216 -104 -303 -118 -124 -317 -186 -598
-187 l-123 0 0 481 0 481 178 -4 c139 -4 194 -9 255 -26z"/>
<path d="M7280 8829 c-125 -32 -215 -82 -301 -168 -115 -115 -170 -249 -172
-421 -2 -106 14 -171 65 -279 56 -118 159 -220 278 -278 121 -58 172 -68 340
-68 167 1 229 14 357 76 91 43 212 144 194 162 -7 7 -27 -5 -61 -37 -55 -52
-179 -115 -270 -137 -80 -20 -261 -17 -335 5 -231 70 -369 243 -404 504 l-8
62 569 0 568 0 0 48 c-1 277 -160 477 -427 536 -103 23 -296 21 -393 -5z m361
-33 c167 -59 260 -177 290 -365 5 -38 9 -87 7 -108 l-3 -38 -482 -3 -483 -2 0
38 c0 198 179 435 367 487 82 23 227 18 304 -9z"/>
<path d="M12746 8835 c-89 -17 -184 -63 -222 -107 -41 -50 -34 -58 56 -58 l80
0 14 33 c7 18 28 45 46 60 56 48 96 59 195 55 192 -7 260 -89 267 -323 l3 -99
-70 -18 c-357 -92 -575 -188 -698 -306 -96 -92 -114 -182 -60 -290 56 -113
176 -167 368 -166 134 0 216 22 354 95 51 28 96 47 99 44 3 -3 17 -36 32 -73
67 -174 182 -281 365 -343 100 -34 299 -33 430 2 l90 24 3 88 c1 48 1 87 -2
87 -3 0 -44 -25 -92 -57 -259 -168 -420 -162 -542 22 -50 73 -66 113 -177 430
-49 138 -91 254 -95 258 -12 13 -146 -39 -142 -55 2 -7 26 -76 54 -153 69
-191 69 -191 -12 -232 -120 -61 -214 -86 -325 -87 -146 -1 -212 33 -258 134
-28 62 -28 161 0 215 40 76 148 161 278 217 138 60 403 138 515 150 25 3 25 4
24 93 -2 192 -73 306 -218 351 -73 23 -262 27 -360 9z"/>
<path d="M10205 8826 c-33 -8 -82 -22 -110 -31 -192 -66 -362 -218 -432 -385
-24 -58 -27 -78 -27 -185 -1 -166 28 -258 116 -370 111 -141 279 -224 490
-244 151 -14 301 7 425 60 68 29 158 98 145 111 -8 8 -21 2 -43 -16 -102 -86
-316 -140 -463 -116 -233 37 -412 184 -477 389 -27 85 -35 234 -19 330 37 222
210 397 425 431 163 26 357 -23 411 -105 15 -23 22 -25 102 -25 l85 0 -24 26
c-42 46 -104 83 -185 110 -68 23 -99 28 -219 30 -95 3 -159 -1 -200 -10z"/>
</g>
</svg>
