<?xml version="1.0" standalone="no"?>
<!DOCTYPE svg PUBLIC "-//W3C//DTD SVG 20010904//EN"
 "http://www.w3.org/TR/2001/REC-SVG-20010904/DTD/svg10.dtd">
<svg version="1.0" xmlns="http://www.w3.org/2000/svg"
 width="1600.000000pt" height="1600.000000pt" viewBox="0 0 1600.000000 1600.000000"
 preserveAspectRatio="xMidYMid meet">

<g transform="translate(0.000000,1600.000000) scale(0.100000,-0.100000)"
fill="#000000" stroke="none">
<path d="M1544 9520 c-174 -35 -329 -185 -616 -600 -257 -371 -352 -684 -263
-860 35 -69 104 -136 173 -168 52 -24 68 -26 177 -26 132 0 208 17 335 77 103
49 241 142 253 171 3 6 17 36 30 67 l26 57 -42 -10 c-50 -12 -179 -2 -247 18
-52 15 -110 57 -110 79 0 7 -16 16 -35 19 -55 11 -76 51 -87 162 -8 88 -7 98
17 156 32 78 123 236 228 393 94 141 85 130 94 122 3 -4 -25 -53 -64 -109
-111 -161 -292 -475 -223 -386 69 89 241 107 378 40 79 -39 151 -133 152 -199
0 -28 -9 -29 -52 -4 -93 55 -261 67 -358 26 -35 -15 -79 -25 -106 -25 l-46 0
4 -55 c8 -96 73 -136 124 -76 61 73 215 96 314 46 27 -14 54 -34 60 -44 13
-25 13 -34 0 -26 -5 3 -10 -3 -10 -15 0 -34 -29 -79 -55 -86 -28 -7 -122 11
-142 28 -17 13 -17 80 0 97 10 12 8 13 -8 7 -74 -24 -165 -62 -165 -68 0 -19
43 -48 92 -63 78 -25 224 -31 268 -12 30 14 40 28 74 106 22 50 43 91 48 91
11 0 38 -56 38 -80 0 -34 -16 -56 -68 -89 -38 -24 -54 -43 -70 -82 l-21 -50
27 21 c62 48 268 261 323 333 56 74 58 80 44 100 -8 12 -15 33 -15 47 0 36 52
114 90 136 l32 19 -4 100 c-5 116 -28 183 -103 295 -57 85 -208 239 -271 276
-25 15 -71 33 -103 40 -62 15 -60 15 -117 4z"/>
<path d="M2081 8735 c-32 -37 -45 -71 -39 -101 7 -35 26 -23 50 33 49 111 46
132 -11 68z"/>
<path d="M1298 8735 c-57 -19 -110 -77 -128 -141 -11 -39 -11 -47 1 -55 23
-14 45 -11 116 19 60 24 80 27 173 26 89 -1 115 -5 170 -27 35 -14 66 -24 69
-22 10 11 -36 89 -74 124 -78 72 -230 107 -327 76z"/>
<path d="M1389 8432 c-54 -20 -107 -57 -97 -68 4 -4 34 5 65 19 69 30 100 37
173 39 l55 2 -40 12 c-55 17 -102 16 -156 -4z"/>
<path d="M1735 8365 c-14 -32 -24 -62 -23 -67 2 -4 18 4 36 18 33 26 42 63 23
93 -7 11 -16 0 -36 -44z"/>
<path d="M1471 8374 c-12 -15 -21 -32 -21 -39 0 -24 37 -44 92 -51 50 -6 57
-4 72 17 41 58 8 99 -79 99 -35 0 -48 -5 -64 -26z"/>
<path d="M2715 7495 c-60 -8 -116 -14 -122 -14 -23 -2 -16 -120 10 -165 38
-68 47 -67 114 2 38 40 66 62 81 62 50 0 47 -99 -5 -140 -18 -14 -41 -20 -77
-20 l-51 -1 -62 -102 c-147 -245 -377 -508 -498 -569 -46 -24 -131 -22 -184 5
-19 9 -37 15 -39 12 -9 -9 30 -33 93 -57 57 -22 72 -23 325 -22 260 0 343 7
525 45 417 87 672 285 717 557 10 57 10 82 -1 120 -28 105 -116 201 -241 261
l-75 36 -200 2 c-118 1 -245 -4 -310 -12z"/>
<path d="M2515 7464 c-54 -12 -116 -28 -175 -46 -80 -25 -250 -98 -250 -107 0
-4 24 -13 53 -20 65 -16 107 -31 107 -40 0 -18 -28 -31 -68 -31 -24 0 -41 -4
-38 -8 5 -9 -249 -136 -295 -147 -27 -7 -43 -34 -70 -120 -19 -59 -15 -211 6
-260 19 -45 64 -109 72 -101 3 2 -5 18 -17 34 -28 38 -20 52 31 52 45 0 58
-17 41 -56 -10 -21 -8 -25 19 -39 16 -9 52 -19 78 -22 67 -8 106 13 213 115
131 125 261 293 384 496 l42 69 -28 23 c-40 34 -62 88 -63 155 -1 33 -6 58
-12 58 -5 -1 -19 -3 -30 -5z"/>
<path d="M2733 7303 c-53 -53 -54 -57 -34 -65 28 -10 86 13 100 40 14 27 14
82 0 82 -6 0 -36 -26 -66 -57z"/>
<path d="M2025 7278 c-17 -10 -8 -14 65 -25 153 -22 172 -15 45 17 -91 23 -84
23 -110 8z"/>
<path d="M1943 7215 c-32 -26 -108 -123 -102 -130 6 -5 279 127 279 135 0 4
-17 10 -37 14 -72 11 -107 7 -140 -19z"/>
<path d="M1858 6628 c19 -20 24 -21 32 -8 16 25 12 30 -22 30 l-32 0 22 -22z"/>
</g>
</svg>
